  0
SECTION
  2
BLOCKS
  0
ENDSEC
  0
SECTION
  2
ENTITIES
  0
LINE
  8
0
 10
50
 20
19
 11
61
 21
19
  0
LINE
  8
0
 10
61
 20
19
 11
61
 21
-15
  0
LINE
  8
0
 10
61
 20
-15
 11
135
 21
-15
  0
LINE
  8
0
 10
135
 20
-15
 11
135
 21
40
  0
LINE
  8
0
 10
135
 20
40
 11
0
 21
40
  0
LINE
  8
0
 10
0
 20
40
 11
0
 21
7
  0
LINE
  8
0
 10
0
 20
7
 11
19
 21
7
  0
LINE
  8
0
 10
19
 20
7
 11
19
 21
-7
  0
LINE
  8
0
 10
19
 20
-7
 11
0
 21
-7
  0
LINE
  8
0
 10
0
 20
-7
 11
0
 21
-15
  0
LINE
  8
0
 10
0
 20
-15
 11
50
 21
-15
  0
LINE
  8
0
 10
50
 20
-15
 11
50
 21
19
  0
LINE
  8
0
 10
118
 20
32.075
 11
118
 21
36
  0
LINE
  8
0
 10
118
 20
36
 11
125.925
 21
36
  0
LINE
  8
0
 10
125.925
 20
36
 11
125.925
 21
32.075
  0
LINE
  8
0
 10
125.925
 20
32.075
 11
118
 21
32.075
  0
LINE
  8
0
 10
72
 20
32.075
 11
72
 21
36
  0
LINE
  8
0
 10
72
 20
36
 11
79.925
 21
36
  0
LINE
  8
0
 10
79.925
 20
36
 11
79.925
 21
32.075
  0
LINE
  8
0
 10
79.925
 20
32.075
 11
72
 21
32.075
  0
LINE
  8
0
 10
95
 20
32.075
 11
95
 21
36
  0
LINE
  8
0
 10
95
 20
36
 11
102.925
 21
36
  0
LINE
  8
0
 10
102.925
 20
36
 11
102.925
 21
32.075
  0
LINE
  8
0
 10
102.925
 20
32.075
 11
95
 21
32.075
  0
LINE
  8
0
 10
31.25
 20
18.5048
 11
28.5048
 21
21.25
  0
LINE
  8
0
 10
28.5048
 20
21.25
 11
27.5
 21
25
  0
LINE
  8
0
 10
27.5
 20
25
 11
28.5048
 21
28.75
  0
LINE
  8
0
 10
28.5048
 20
28.75
 11
31.25
 21
31.4952
  0
LINE
  8
0
 10
31.25
 20
31.4952
 11
35
 21
32.5
  0
LINE
  8
0
 10
35
 20
32.5
 11
38.75
 21
31.4952
  0
LINE
  8
0
 10
38.75
 20
31.4952
 11
41.4952
 21
28.75
  0
LINE
  8
0
 10
41.4952
 20
28.75
 11
42.5
 21
25
  0
LINE
  8
0
 10
42.5
 20
25
 11
41.4952
 21
21.25
  0
LINE
  8
0
 10
41.4952
 20
21.25
 11
38.75
 21
18.5048
  0
LINE
  8
0
 10
38.75
 20
18.5048
 11
35
 21
17.5
  0
LINE
  8
0
 10
35
 20
17.5
 11
31.25
 21
18.5048
  0
LINE
  8
0
 10
108.666
 20
-10.4083
 11
102.4
 21
-8.12769
  0
LINE
  8
0
 10
102.4
 20
-8.12769
 11
97.2919
 21
-3.84151
  0
LINE
  8
0
 10
97.2919
 20
-3.84151
 11
93.9579
 21
1.93321
  0
LINE
  8
0
 10
93.9579
 20
1.93321
 11
92.8
 21
8.5
  0
LINE
  8
0
 10
92.8
 20
8.5
 11
93.9579
 21
15.0668
  0
LINE
  8
0
 10
93.9579
 20
15.0668
 11
97.2919
 21
20.8415
  0
LINE
  8
0
 10
97.2919
 20
20.8415
 11
102.4
 21
25.1277
  0
LINE
  8
0
 10
102.4
 20
25.1277
 11
108.666
 21
27.4083
  0
LINE
  8
0
 10
108.666
 20
27.4083
 11
115.334
 21
27.4083
  0
LINE
  8
0
 10
115.334
 20
27.4083
 11
121.6
 21
25.1277
  0
LINE
  8
0
 10
121.6
 20
25.1277
 11
126.708
 21
20.8415
  0
LINE
  8
0
 10
126.708
 20
20.8415
 11
130.042
 21
15.0668
  0
LINE
  8
0
 10
130.042
 20
15.0668
 11
131.2
 21
8.5
  0
LINE
  8
0
 10
131.2
 20
8.5
 11
130.042
 21
1.93321
  0
LINE
  8
0
 10
130.042
 20
1.93321
 11
126.708
 21
-3.84151
  0
LINE
  8
0
 10
126.708
 20
-3.84151
 11
121.6
 21
-8.12769
  0
LINE
  8
0
 10
121.6
 20
-8.12769
 11
115.334
 21
-10.4083
  0
LINE
  8
0
 10
115.334
 20
-10.4083
 11
108.666
 21
-10.4083
  0
LINE
  8
0
 10
95.2875
 20
23.2659
 11
94.7659
 21
23.7875
  0
LINE
  8
0
 10
94.7659
 20
23.7875
 11
94.575
 21
24.5
  0
LINE
  8
0
 10
94.575
 20
24.5
 11
94.7659
 21
25.2125
  0
LINE
  8
0
 10
94.7659
 20
25.2125
 11
95.2875
 21
25.7341
  0
LINE
  8
0
 10
95.2875
 20
25.7341
 11
96
 21
25.925
  0
LINE
  8
0
 10
96
 20
25.925
 11
96.7125
 21
25.7341
  0
LINE
  8
0
 10
96.7125
 20
25.7341
 11
97.2341
 21
25.2125
  0
LINE
  8
0
 10
97.2341
 20
25.2125
 11
97.425
 21
24.5
  0
LINE
  8
0
 10
97.425
 20
24.5
 11
97.2341
 21
23.7875
  0
LINE
  8
0
 10
97.2341
 20
23.7875
 11
96.7125
 21
23.2659
  0
LINE
  8
0
 10
96.7125
 20
23.2659
 11
96
 21
23.075
  0
LINE
  8
0
 10
96
 20
23.075
 11
95.2875
 21
23.2659
  0
LINE
  8
0
 10
127.287
 20
23.2659
 11
126.766
 21
23.7875
  0
LINE
  8
0
 10
126.766
 20
23.7875
 11
126.575
 21
24.5
  0
LINE
  8
0
 10
126.575
 20
24.5
 11
126.766
 21
25.2125
  0
LINE
  8
0
 10
126.766
 20
25.2125
 11
127.287
 21
25.7341
  0
LINE
  8
0
 10
127.287
 20
25.7341
 11
128
 21
25.925
  0
LINE
  8
0
 10
128
 20
25.925
 11
128.712
 21
25.7341
  0
LINE
  8
0
 10
128.712
 20
25.7341
 11
129.234
 21
25.2125
  0
LINE
  8
0
 10
129.234
 20
25.2125
 11
129.425
 21
24.5
  0
LINE
  8
0
 10
129.425
 20
24.5
 11
129.234
 21
23.7875
  0
LINE
  8
0
 10
129.234
 20
23.7875
 11
128.712
 21
23.2659
  0
LINE
  8
0
 10
128.712
 20
23.2659
 11
128
 21
23.075
  0
LINE
  8
0
 10
128
 20
23.075
 11
127.287
 21
23.2659
  0
LINE
  8
0
 10
6.28749
 20
10.7659
 11
5.7659
 21
11.2875
  0
LINE
  8
0
 10
5.7659
 20
11.2875
 11
5.575
 21
12
  0
LINE
  8
0
 10
5.575
 20
12
 11
5.7659
 21
12.7125
  0
LINE
  8
0
 10
5.7659
 20
12.7125
 11
6.28749
 21
13.2341
  0
LINE
  8
0
 10
6.28749
 20
13.2341
 11
7
 21
13.425
  0
LINE
  8
0
 10
7
 20
13.425
 11
7.71249
 21
13.2341
  0
LINE
  8
0
 10
7.71249
 20
13.2341
 11
8.23409
 21
12.7125
  0
LINE
  8
0
 10
8.23409
 20
12.7125
 11
8.42499
 21
12
  0
LINE
  8
0
 10
8.42499
 20
12
 11
8.23409
 21
11.2875
  0
LINE
  8
0
 10
8.23409
 20
11.2875
 11
7.71249
 21
10.7659
  0
LINE
  8
0
 10
7.71249
 20
10.7659
 11
7
 21
10.575
  0
LINE
  8
0
 10
7
 20
10.575
 11
6.28749
 21
10.7659
  0
LINE
  8
0
 10
31.5375
 20
6.3329
 11
30.8329
 21
7.03749
  0
LINE
  8
0
 10
30.8329
 20
7.03749
 11
30.575
 21
8
  0
LINE
  8
0
 10
30.575
 20
8
 11
30.8329
 21
8.96249
  0
LINE
  8
0
 10
30.8329
 20
8.96249
 11
31.5375
 21
9.66708
  0
LINE
  8
0
 10
31.5375
 20
9.66708
 11
32.5
 21
9.92499
  0
LINE
  8
0
 10
32.5
 20
9.92499
 11
33.4625
 21
9.66708
  0
LINE
  8
0
 10
33.4625
 20
9.66708
 11
34.1671
 21
8.96249
  0
LINE
  8
0
 10
34.1671
 20
8.96249
 11
34.425
 21
8
  0
LINE
  8
0
 10
34.425
 20
8
 11
34.1671
 21
7.03749
  0
LINE
  8
0
 10
34.1671
 20
7.03749
 11
33.4625
 21
6.3329
  0
LINE
  8
0
 10
33.4625
 20
6.3329
 11
32.5
 21
6.075
  0
LINE
  8
0
 10
32.5
 20
6.075
 11
31.5375
 21
6.3329
  0
LINE
  8
0
 10
21.0375
 20
6.3329
 11
20.3329
 21
7.03749
  0
LINE
  8
0
 10
20.3329
 20
7.03749
 11
20.075
 21
8
  0
LINE
  8
0
 10
20.075
 20
8
 11
20.3329
 21
8.96249
  0
LINE
  8
0
 10
20.3329
 20
8.96249
 11
21.0375
 21
9.66708
  0
LINE
  8
0
 10
21.0375
 20
9.66708
 11
22
 21
9.92499
  0
LINE
  8
0
 10
22
 20
9.92499
 11
22.9625
 21
9.66708
  0
LINE
  8
0
 10
22.9625
 20
9.66708
 11
23.6671
 21
8.96249
  0
LINE
  8
0
 10
23.6671
 20
8.96249
 11
23.925
 21
8
  0
LINE
  8
0
 10
23.925
 20
8
 11
23.6671
 21
7.03749
  0
LINE
  8
0
 10
23.6671
 20
7.03749
 11
22.9625
 21
6.3329
  0
LINE
  8
0
 10
22.9625
 20
6.3329
 11
22
 21
6.075
  0
LINE
  8
0
 10
22
 20
6.075
 11
21.0375
 21
6.3329
  0
LINE
  8
0
 10
41.0375
 20
6.3329
 11
40.3329
 21
7.03749
  0
LINE
  8
0
 10
40.3329
 20
7.03749
 11
40.075
 21
8
  0
LINE
  8
0
 10
40.075
 20
8
 11
40.3329
 21
8.96249
  0
LINE
  8
0
 10
40.3329
 20
8.96249
 11
41.0375
 21
9.66708
  0
LINE
  8
0
 10
41.0375
 20
9.66708
 11
42
 21
9.92499
  0
LINE
  8
0
 10
42
 20
9.92499
 11
42.9625
 21
9.66708
  0
LINE
  8
0
 10
42.9625
 20
9.66708
 11
43.6671
 21
8.96249
  0
LINE
  8
0
 10
43.6671
 20
8.96249
 11
43.925
 21
8
  0
LINE
  8
0
 10
43.925
 20
8
 11
43.6671
 21
7.03749
  0
LINE
  8
0
 10
43.6671
 20
7.03749
 11
42.9625
 21
6.3329
  0
LINE
  8
0
 10
42.9625
 20
6.3329
 11
42
 21
6.075
  0
LINE
  8
0
 10
42
 20
6.075
 11
41.0375
 21
6.3329
  0
LINE
  8
0
 10
68.25
 20
-6.49518
 11
65.5048
 21
-3.74998
  0
LINE
  8
0
 10
65.5048
 20
-3.74998
 11
64.5
 21
0
  0
LINE
  8
0
 10
64.5
 20
0
 11
65.5048
 21
3.74998
  0
LINE
  8
0
 10
65.5048
 20
3.74998
 11
68.25
 21
6.49518
  0
LINE
  8
0
 10
68.25
 20
6.49518
 11
72
 21
7.5
  0
LINE
  8
0
 10
72
 20
7.5
 11
75.75
 21
6.49518
  0
LINE
  8
0
 10
75.75
 20
6.49518
 11
78.4952
 21
3.74998
  0
LINE
  8
0
 10
78.4952
 20
3.74998
 11
79.5
 21
0
  0
LINE
  8
0
 10
79.5
 20
0
 11
78.4952
 21
-3.75
  0
LINE
  8
0
 10
78.4952
 20
-3.75
 11
75.75
 21
-6.49518
  0
LINE
  8
0
 10
75.75
 20
-6.49518
 11
72
 21
-7.5
  0
LINE
  8
0
 10
72
 20
-7.5
 11
68.25
 21
-6.49518
  0
LINE
  8
0
 10
41.0375
 20
-9.66708
 11
40.3329
 21
-8.96249
  0
LINE
  8
0
 10
40.3329
 20
-8.96249
 11
40.075
 21
-8
  0
LINE
  8
0
 10
40.075
 20
-8
 11
40.3329
 21
-7.03749
  0
LINE
  8
0
 10
40.3329
 20
-7.03749
 11
41.0375
 21
-6.3329
  0
LINE
  8
0
 10
41.0375
 20
-6.3329
 11
42
 21
-6.075
  0
LINE
  8
0
 10
42
 20
-6.075
 11
42.9625
 21
-6.3329
  0
LINE
  8
0
 10
42.9625
 20
-6.3329
 11
43.6671
 21
-7.03749
  0
LINE
  8
0
 10
43.6671
 20
-7.03749
 11
43.925
 21
-8
  0
LINE
  8
0
 10
43.925
 20
-8
 11
43.6671
 21
-8.96249
  0
LINE
  8
0
 10
43.6671
 20
-8.96249
 11
42.9625
 21
-9.66708
  0
LINE
  8
0
 10
42.9625
 20
-9.66708
 11
42
 21
-9.92499
  0
LINE
  8
0
 10
42
 20
-9.92499
 11
41.0375
 21
-9.66708
  0
LINE
  8
0
 10
127.287
 20
-8.73409
 11
126.766
 21
-8.21249
  0
LINE
  8
0
 10
126.766
 20
-8.21249
 11
126.575
 21
-7.5
  0
LINE
  8
0
 10
126.575
 20
-7.5
 11
126.766
 21
-6.78749
  0
LINE
  8
0
 10
126.766
 20
-6.78749
 11
127.287
 21
-6.2659
  0
LINE
  8
0
 10
127.287
 20
-6.2659
 11
128
 21
-6.075
  0
LINE
  8
0
 10
128
 20
-6.075
 11
128.712
 21
-6.2659
  0
LINE
  8
0
 10
128.712
 20
-6.2659
 11
129.234
 21
-6.78749
  0
LINE
  8
0
 10
129.234
 20
-6.78749
 11
129.425
 21
-7.5
  0
LINE
  8
0
 10
129.425
 20
-7.5
 11
129.234
 21
-8.21249
  0
LINE
  8
0
 10
129.234
 20
-8.21249
 11
128.712
 21
-8.73409
  0
LINE
  8
0
 10
128.712
 20
-8.73409
 11
128
 21
-8.92499
  0
LINE
  8
0
 10
128
 20
-8.92499
 11
127.287
 21
-8.73409
  0
LINE
  8
0
 10
95.2875
 20
-8.73409
 11
94.7659
 21
-8.21249
  0
LINE
  8
0
 10
94.7659
 20
-8.21249
 11
94.575
 21
-7.5
  0
LINE
  8
0
 10
94.575
 20
-7.5
 11
94.7659
 21
-6.78749
  0
LINE
  8
0
 10
94.7659
 20
-6.78749
 11
95.2875
 21
-6.2659
  0
LINE
  8
0
 10
95.2875
 20
-6.2659
 11
96
 21
-6.075
  0
LINE
  8
0
 10
96
 20
-6.075
 11
96.7125
 21
-6.2659
  0
LINE
  8
0
 10
96.7125
 20
-6.2659
 11
97.2341
 21
-6.78749
  0
LINE
  8
0
 10
97.2341
 20
-6.78749
 11
97.425
 21
-7.5
  0
LINE
  8
0
 10
97.425
 20
-7.5
 11
97.2341
 21
-8.21249
  0
LINE
  8
0
 10
97.2341
 20
-8.21249
 11
96.7125
 21
-8.73409
  0
LINE
  8
0
 10
96.7125
 20
-8.73409
 11
96
 21
-8.92499
  0
LINE
  8
0
 10
96
 20
-8.92499
 11
95.2875
 21
-8.73409
  0
LINE
  8
0
 10
31.5375
 20
-9.66708
 11
30.8329
 21
-8.96249
  0
LINE
  8
0
 10
30.8329
 20
-8.96249
 11
30.575
 21
-8
  0
LINE
  8
0
 10
30.575
 20
-8
 11
30.8329
 21
-7.03749
  0
LINE
  8
0
 10
30.8329
 20
-7.03749
 11
31.5375
 21
-6.3329
  0
LINE
  8
0
 10
31.5375
 20
-6.3329
 11
32.5
 21
-6.075
  0
LINE
  8
0
 10
32.5
 20
-6.075
 11
33.4625
 21
-6.3329
  0
LINE
  8
0
 10
33.4625
 20
-6.3329
 11
34.1671
 21
-7.03749
  0
LINE
  8
0
 10
34.1671
 20
-7.03749
 11
34.425
 21
-8
  0
LINE
  8
0
 10
34.425
 20
-8
 11
34.1671
 21
-8.96249
  0
LINE
  8
0
 10
34.1671
 20
-8.96249
 11
33.4625
 21
-9.66708
  0
LINE
  8
0
 10
33.4625
 20
-9.66708
 11
32.5
 21
-9.92499
  0
LINE
  8
0
 10
32.5
 20
-9.92499
 11
31.5375
 21
-9.66708
  0
LINE
  8
0
 10
21.0375
 20
-9.66708
 11
20.3329
 21
-8.96249
  0
LINE
  8
0
 10
20.3329
 20
-8.96249
 11
20.075
 21
-8
  0
LINE
  8
0
 10
20.075
 20
-8
 11
20.3329
 21
-7.03749
  0
LINE
  8
0
 10
20.3329
 20
-7.03749
 11
21.0375
 21
-6.3329
  0
LINE
  8
0
 10
21.0375
 20
-6.3329
 11
22
 21
-6.075
  0
LINE
  8
0
 10
22
 20
-6.075
 11
22.9625
 21
-6.3329
  0
LINE
  8
0
 10
22.9625
 20
-6.3329
 11
23.6671
 21
-7.03749
  0
LINE
  8
0
 10
23.6671
 20
-7.03749
 11
23.925
 21
-8
  0
LINE
  8
0
 10
23.925
 20
-8
 11
23.6671
 21
-8.96249
  0
LINE
  8
0
 10
23.6671
 20
-8.96249
 11
22.9625
 21
-9.66708
  0
LINE
  8
0
 10
22.9625
 20
-9.66708
 11
22
 21
-9.92499
  0
LINE
  8
0
 10
22
 20
-9.92499
 11
21.0375
 21
-9.66708
  0
LINE
  8
0
 10
6.28749
 20
-13.2341
 11
5.7659
 21
-12.7125
  0
LINE
  8
0
 10
5.7659
 20
-12.7125
 11
5.575
 21
-12
  0
LINE
  8
0
 10
5.575
 20
-12
 11
5.7659
 21
-11.2875
  0
LINE
  8
0
 10
5.7659
 20
-11.2875
 11
6.28749
 21
-10.7659
  0
LINE
  8
0
 10
6.28749
 20
-10.7659
 11
7
 21
-10.575
  0
LINE
  8
0
 10
7
 20
-10.575
 11
7.71249
 21
-10.7659
  0
LINE
  8
0
 10
7.71249
 20
-10.7659
 11
8.23409
 21
-11.2875
  0
LINE
  8
0
 10
8.23409
 20
-11.2875
 11
8.42499
 21
-12
  0
LINE
  8
0
 10
8.42499
 20
-12
 11
8.23409
 21
-12.7125
  0
LINE
  8
0
 10
8.23409
 20
-12.7125
 11
7.71249
 21
-13.2341
  0
LINE
  8
0
 10
7.71249
 20
-13.2341
 11
7
 21
-13.425
  0
LINE
  8
0
 10
7
 20
-13.425
 11
6.28749
 21
-13.2341
  0
ENDSEC
  0
SECTION
  2
OBJECTS
  0
DICTIONARY
  0
ENDSEC
  0
EOF
