  0
SECTION
  2
BLOCKS
  0
ENDSEC
  0
SECTION
  2
ENTITIES
  0
LINE
  8
0
 10
106
 20
-19.1064
 11
101.615
 21
-15.4269
  0
LINE
  8
0
 10
101.615
 20
-15.4269
 11
97.4474
 21
-8.20848
  0
LINE
  8
0
 10
97.4474
 20
-8.20848
 11
96
 21
0
  0
LINE
  8
0
 10
96
 20
0
 11
97.4474
 21
8.20848
  0
LINE
  8
0
 10
97.4474
 20
8.20848
 11
101.615
 21
15.4269
  0
LINE
  8
0
 10
101.615
 20
15.4269
 11
106
 21
19.1064
  0
LINE
  8
0
 10
106
 20
19.1064
 11
106
 21
30
  0
LINE
  8
0
 10
106
 20
30
 11
41
 21
30
  0
LINE
  8
0
 10
41
 20
30
 11
41
 21
18
  0
LINE
  8
0
 10
41
 20
18
 11
0
 21
18
  0
LINE
  8
0
 10
0
 20
18
 11
0
 21
7
  0
LINE
  8
0
 10
0
 20
7
 11
19
 21
7
  0
LINE
  8
0
 10
19
 20
7
 11
19
 21
-7
  0
LINE
  8
0
 10
19
 20
-7
 11
0
 21
-7
  0
LINE
  8
0
 10
0
 20
-7
 11
0
 21
-18
  0
LINE
  8
0
 10
0
 20
-18
 11
41
 21
-18
  0
LINE
  8
0
 10
41
 20
-18
 11
41
 21
-30
  0
LINE
  8
0
 10
41
 20
-30
 11
106
 21
-30
  0
LINE
  8
0
 10
106
 20
-30
 11
106
 21
-19.1064
  0
LINE
  8
0
 10
54.25
 20
23.201
 11
53.701
 21
23.75
  0
LINE
  8
0
 10
53.701
 20
23.75
 11
53.5
 21
24.5
  0
LINE
  8
0
 10
53.5
 20
24.5
 11
53.701
 21
25.25
  0
LINE
  8
0
 10
53.701
 20
25.25
 11
54.25
 21
25.799
  0
LINE
  8
0
 10
54.25
 20
25.799
 11
55
 21
26
  0
LINE
  8
0
 10
55
 20
26
 11
55.75
 21
25.799
  0
LINE
  8
0
 10
55.75
 20
25.799
 11
56.299
 21
25.25
  0
LINE
  8
0
 10
56.299
 20
25.25
 11
56.5
 21
24.5
  0
LINE
  8
0
 10
56.5
 20
24.5
 11
56.299
 21
23.75
  0
LINE
  8
0
 10
56.299
 20
23.75
 11
55.75
 21
23.201
  0
LINE
  8
0
 10
55.75
 20
23.201
 11
55
 21
23
  0
LINE
  8
0
 10
55
 20
23
 11
54.25
 21
23.201
  0
LINE
  8
0
 10
84.25
 20
19.201
 11
83.701
 21
19.75
  0
LINE
  8
0
 10
83.701
 20
19.75
 11
83.5
 21
20.5
  0
LINE
  8
0
 10
83.5
 20
20.5
 11
83.701
 21
21.25
  0
LINE
  8
0
 10
83.701
 20
21.25
 11
84.25
 21
21.799
  0
LINE
  8
0
 10
84.25
 20
21.799
 11
85
 21
22
  0
LINE
  8
0
 10
85
 20
22
 11
85.75
 21
21.799
  0
LINE
  8
0
 10
85.75
 20
21.799
 11
86.299
 21
21.25
  0
LINE
  8
0
 10
86.299
 20
21.25
 11
86.5
 21
20.5
  0
LINE
  8
0
 10
86.5
 20
20.5
 11
86.299
 21
19.75
  0
LINE
  8
0
 10
86.299
 20
19.75
 11
85.75
 21
19.201
  0
LINE
  8
0
 10
85.75
 20
19.201
 11
85
 21
19
  0
LINE
  8
0
 10
85
 20
19
 11
84.25
 21
19.201
  0
LINE
  8
0
 10
95.25
 20
16.201
 11
94.701
 21
16.75
  0
LINE
  8
0
 10
94.701
 20
16.75
 11
94.5
 21
17.5
  0
LINE
  8
0
 10
94.5
 20
17.5
 11
94.701
 21
18.25
  0
LINE
  8
0
 10
94.701
 20
18.25
 11
95.25
 21
18.799
  0
LINE
  8
0
 10
95.25
 20
18.799
 11
96
 21
19
  0
LINE
  8
0
 10
96
 20
19
 11
96.75
 21
18.799
  0
LINE
  8
0
 10
96.75
 20
18.799
 11
97.299
 21
18.25
  0
LINE
  8
0
 10
97.299
 20
18.25
 11
97.5
 21
17.5
  0
LINE
  8
0
 10
97.5
 20
17.5
 11
97.299
 21
16.75
  0
LINE
  8
0
 10
97.299
 20
16.75
 11
96.75
 21
16.201
  0
LINE
  8
0
 10
96.75
 20
16.201
 11
96
 21
16
  0
LINE
  8
0
 10
96
 20
16
 11
95.25
 21
16.201
  0
LINE
  8
0
 10
49
 20
-19
 11
49
 21
19
  0
LINE
  8
0
 10
49
 20
19
 11
80
 21
19
  0
LINE
  8
0
 10
80
 20
19
 11
80
 21
-19
  0
LINE
  8
0
 10
80
 20
-19
 11
49
 21
-19
  0
LINE
  8
0
 10
6.25
 20
12.201
 11
5.70096
 21
12.75
  0
LINE
  8
0
 10
5.70096
 20
12.75
 11
5.5
 21
13.5
  0
LINE
  8
0
 10
5.5
 20
13.5
 11
5.70096
 21
14.25
  0
LINE
  8
0
 10
5.70096
 20
14.25
 11
6.25
 21
14.799
  0
LINE
  8
0
 10
6.25
 20
14.799
 11
7
 21
15
  0
LINE
  8
0
 10
7
 20
15
 11
7.75
 21
14.799
  0
LINE
  8
0
 10
7.75
 20
14.799
 11
8.29903
 21
14.25
  0
LINE
  8
0
 10
8.29903
 20
14.25
 11
8.5
 21
13.5
  0
LINE
  8
0
 10
8.5
 20
13.5
 11
8.29903
 21
12.75
  0
LINE
  8
0
 10
8.29903
 20
12.75
 11
7.75
 21
12.201
  0
LINE
  8
0
 10
7.75
 20
12.201
 11
7
 21
12
  0
LINE
  8
0
 10
7
 20
12
 11
6.25
 21
12.201
  0
LINE
  8
0
 10
31.5
 20
4.26794
 11
30.7679
 21
5
  0
LINE
  8
0
 10
30.7679
 20
5
 11
30.5
 21
6
  0
LINE
  8
0
 10
30.5
 20
6
 11
30.7679
 21
7
  0
LINE
  8
0
 10
30.7679
 20
7
 11
31.5
 21
7.73204
  0
LINE
  8
0
 10
31.5
 20
7.73204
 11
32.5
 21
8
  0
LINE
  8
0
 10
32.5
 20
8
 11
33.5
 21
7.73204
  0
LINE
  8
0
 10
33.5
 20
7.73204
 11
34.232
 21
7
  0
LINE
  8
0
 10
34.232
 20
7
 11
34.5
 21
6
  0
LINE
  8
0
 10
34.5
 20
6
 11
34.232
 21
4.99998
  0
LINE
  8
0
 10
34.232
 20
4.99998
 11
33.5
 21
4.26794
  0
LINE
  8
0
 10
33.5
 20
4.26794
 11
32.5
 21
4
  0
LINE
  8
0
 10
32.5
 20
4
 11
31.5
 21
4.26794
  0
LINE
  8
0
 10
21
 20
4.26794
 11
20.2679
 21
5
  0
LINE
  8
0
 10
20.2679
 20
5
 11
20
 21
6
  0
LINE
  8
0
 10
20
 20
6
 11
20.2679
 21
7
  0
LINE
  8
0
 10
20.2679
 20
7
 11
21
 21
7.73204
  0
LINE
  8
0
 10
21
 20
7.73204
 11
22
 21
8
  0
LINE
  8
0
 10
22
 20
8
 11
23
 21
7.73204
  0
LINE
  8
0
 10
23
 20
7.73204
 11
23.732
 21
7
  0
LINE
  8
0
 10
23.732
 20
7
 11
24
 21
6
  0
LINE
  8
0
 10
24
 20
6
 11
23.732
 21
4.99998
  0
LINE
  8
0
 10
23.732
 20
4.99998
 11
23
 21
4.26794
  0
LINE
  8
0
 10
23
 20
4.26794
 11
22
 21
4
  0
LINE
  8
0
 10
22
 20
4
 11
21
 21
4.26794
  0
LINE
  8
0
 10
41
 20
4.26794
 11
40.2679
 21
5
  0
LINE
  8
0
 10
40.2679
 20
5
 11
40
 21
6
  0
LINE
  8
0
 10
40
 20
6
 11
40.2679
 21
7
  0
LINE
  8
0
 10
40.2679
 20
7
 11
41
 21
7.73204
  0
LINE
  8
0
 10
41
 20
7.73204
 11
42
 21
8
  0
LINE
  8
0
 10
42
 20
8
 11
43
 21
7.73204
  0
LINE
  8
0
 10
43
 20
7.73204
 11
43.732
 21
7
  0
LINE
  8
0
 10
43.732
 20
7
 11
44
 21
6
  0
LINE
  8
0
 10
44
 20
6
 11
43.732
 21
4.99998
  0
LINE
  8
0
 10
43.732
 20
4.99998
 11
43
 21
4.26794
  0
LINE
  8
0
 10
43
 20
4.26794
 11
42
 21
4
  0
LINE
  8
0
 10
42
 20
4
 11
41
 21
4.26794
  0
LINE
  8
0
 10
31.5
 20
-7.73204
 11
30.7679
 21
-6.99998
  0
LINE
  8
0
 10
30.7679
 20
-6.99998
 11
30.5
 21
-6
  0
LINE
  8
0
 10
30.5
 20
-6
 11
30.7679
 21
-5
  0
LINE
  8
0
 10
30.7679
 20
-5
 11
31.5
 21
-4.26794
  0
LINE
  8
0
 10
31.5
 20
-4.26794
 11
32.5
 21
-4
  0
LINE
  8
0
 10
32.5
 20
-4
 11
33.5
 21
-4.26794
  0
LINE
  8
0
 10
33.5
 20
-4.26794
 11
34.232
 21
-5
  0
LINE
  8
0
 10
34.232
 20
-5
 11
34.5
 21
-6
  0
LINE
  8
0
 10
34.5
 20
-6
 11
34.232
 21
-7
  0
LINE
  8
0
 10
34.232
 20
-7
 11
33.5
 21
-7.73204
  0
LINE
  8
0
 10
33.5
 20
-7.73204
 11
32.5
 21
-8
  0
LINE
  8
0
 10
32.5
 20
-8
 11
31.5
 21
-7.73204
  0
LINE
  8
0
 10
41
 20
-7.73204
 11
40.2679
 21
-6.99998
  0
LINE
  8
0
 10
40.2679
 20
-6.99998
 11
40
 21
-6
  0
LINE
  8
0
 10
40
 20
-6
 11
40.2679
 21
-5
  0
LINE
  8
0
 10
40.2679
 20
-5
 11
41
 21
-4.26794
  0
LINE
  8
0
 10
41
 20
-4.26794
 11
42
 21
-4
  0
LINE
  8
0
 10
42
 20
-4
 11
43
 21
-4.26794
  0
LINE
  8
0
 10
43
 20
-4.26794
 11
43.732
 21
-5
  0
LINE
  8
0
 10
43.732
 20
-5
 11
44
 21
-6
  0
LINE
  8
0
 10
44
 20
-6
 11
43.732
 21
-7
  0
LINE
  8
0
 10
43.732
 20
-7
 11
43
 21
-7.73204
  0
LINE
  8
0
 10
43
 20
-7.73204
 11
42
 21
-8
  0
LINE
  8
0
 10
42
 20
-8
 11
41
 21
-7.73204
  0
LINE
  8
0
 10
21
 20
-7.73204
 11
20.2679
 21
-6.99998
  0
LINE
  8
0
 10
20.2679
 20
-6.99998
 11
20
 21
-6
  0
LINE
  8
0
 10
20
 20
-6
 11
20.2679
 21
-5
  0
LINE
  8
0
 10
20.2679
 20
-5
 11
21
 21
-4.26794
  0
LINE
  8
0
 10
21
 20
-4.26794
 11
22
 21
-4
  0
LINE
  8
0
 10
22
 20
-4
 11
23
 21
-4.26794
  0
LINE
  8
0
 10
23
 20
-4.26794
 11
23.732
 21
-5
  0
LINE
  8
0
 10
23.732
 20
-5
 11
24
 21
-6
  0
LINE
  8
0
 10
24
 20
-6
 11
23.732
 21
-7
  0
LINE
  8
0
 10
23.732
 20
-7
 11
23
 21
-7.73204
  0
LINE
  8
0
 10
23
 20
-7.73204
 11
22
 21
-8
  0
LINE
  8
0
 10
22
 20
-8
 11
21
 21
-7.73204
  0
LINE
  8
0
 10
6.25
 20
-14.799
 11
5.70096
 21
-14.25
  0
LINE
  8
0
 10
5.70096
 20
-14.25
 11
5.5
 21
-13.5
  0
LINE
  8
0
 10
5.5
 20
-13.5
 11
5.70096
 21
-12.75
  0
LINE
  8
0
 10
5.70096
 20
-12.75
 11
6.25
 21
-12.201
  0
LINE
  8
0
 10
6.25
 20
-12.201
 11
7
 21
-12
  0
LINE
  8
0
 10
7
 20
-12
 11
7.75
 21
-12.201
  0
LINE
  8
0
 10
7.75
 20
-12.201
 11
8.29903
 21
-12.75
  0
LINE
  8
0
 10
8.29903
 20
-12.75
 11
8.5
 21
-13.5
  0
LINE
  8
0
 10
8.5
 20
-13.5
 11
8.29903
 21
-14.25
  0
LINE
  8
0
 10
8.29903
 20
-14.25
 11
7.75
 21
-14.799
  0
LINE
  8
0
 10
7.75
 20
-14.799
 11
7
 21
-15
  0
LINE
  8
0
 10
7
 20
-15
 11
6.25
 21
-14.799
  0
LINE
  8
0
 10
95.25
 20
-18.799
 11
94.701
 21
-18.25
  0
LINE
  8
0
 10
94.701
 20
-18.25
 11
94.5
 21
-17.5
  0
LINE
  8
0
 10
94.5
 20
-17.5
 11
94.701
 21
-16.75
  0
LINE
  8
0
 10
94.701
 20
-16.75
 11
95.25
 21
-16.201
  0
LINE
  8
0
 10
95.25
 20
-16.201
 11
96
 21
-16
  0
LINE
  8
0
 10
96
 20
-16
 11
96.75
 21
-16.201
  0
LINE
  8
0
 10
96.75
 20
-16.201
 11
97.299
 21
-16.75
  0
LINE
  8
0
 10
97.299
 20
-16.75
 11
97.5
 21
-17.5
  0
LINE
  8
0
 10
97.5
 20
-17.5
 11
97.299
 21
-18.25
  0
LINE
  8
0
 10
97.299
 20
-18.25
 11
96.75
 21
-18.799
  0
LINE
  8
0
 10
96.75
 20
-18.799
 11
96
 21
-19
  0
LINE
  8
0
 10
96
 20
-19
 11
95.25
 21
-18.799
  0
LINE
  8
0
 10
84.25
 20
-21.799
 11
83.701
 21
-21.25
  0
LINE
  8
0
 10
83.701
 20
-21.25
 11
83.5
 21
-20.5
  0
LINE
  8
0
 10
83.5
 20
-20.5
 11
83.701
 21
-19.75
  0
LINE
  8
0
 10
83.701
 20
-19.75
 11
84.25
 21
-19.201
  0
LINE
  8
0
 10
84.25
 20
-19.201
 11
85
 21
-19
  0
LINE
  8
0
 10
85
 20
-19
 11
85.75
 21
-19.201
  0
LINE
  8
0
 10
85.75
 20
-19.201
 11
86.299
 21
-19.75
  0
LINE
  8
0
 10
86.299
 20
-19.75
 11
86.5
 21
-20.5
  0
LINE
  8
0
 10
86.5
 20
-20.5
 11
86.299
 21
-21.25
  0
LINE
  8
0
 10
86.299
 20
-21.25
 11
85.75
 21
-21.799
  0
LINE
  8
0
 10
85.75
 20
-21.799
 11
85
 21
-22
  0
LINE
  8
0
 10
85
 20
-22
 11
84.25
 21
-21.799
  0
LINE
  8
0
 10
54.25
 20
-25.799
 11
53.701
 21
-25.25
  0
LINE
  8
0
 10
53.701
 20
-25.25
 11
53.5
 21
-24.5
  0
LINE
  8
0
 10
53.5
 20
-24.5
 11
53.701
 21
-23.75
  0
LINE
  8
0
 10
53.701
 20
-23.75
 11
54.25
 21
-23.201
  0
LINE
  8
0
 10
54.25
 20
-23.201
 11
55
 21
-23
  0
LINE
  8
0
 10
55
 20
-23
 11
55.75
 21
-23.201
  0
LINE
  8
0
 10
55.75
 20
-23.201
 11
56.299
 21
-23.75
  0
LINE
  8
0
 10
56.299
 20
-23.75
 11
56.5
 21
-24.5
  0
LINE
  8
0
 10
56.5
 20
-24.5
 11
56.299
 21
-25.25
  0
LINE
  8
0
 10
56.299
 20
-25.25
 11
55.75
 21
-25.799
  0
LINE
  8
0
 10
55.75
 20
-25.799
 11
55
 21
-26
  0
LINE
  8
0
 10
55
 20
-26
 11
54.25
 21
-25.799
  0
ENDSEC
  0
SECTION
  2
OBJECTS
  0
DICTIONARY
  0
ENDSEC
  0
EOF
