<?xml version="1.0" standalone="no"?>
<!DOCTYPE svg PUBLIC "-//W3C//DTD SVG 1.1//EN" "http://www.w3.org/Graphics/SVG/1.1/DTD/svg11.dtd">
<svg width="135" height="58" viewBox="0 -43 135 58" xmlns="http://www.w3.org/2000/svg" version="1.1">
<title>OpenSCAD Model</title>
<path d="
M 50,-19 L 64,-19 L 64,-3.73204 L 64.2058,-4.49998 L 67.5,-7.79422 L 72,-9
 L 76.5,-7.79422 L 79.7942,-4.49998 L 81,-0 L 79.7942,4.5 L 76.5,7.79422 L 72,9
 L 67.5,7.79422 L 64.2058,4.49998 L 64,3.73204 L 64,15 L 135,15 L 135,-43
 L 0,-43 L 0,-7 L 19,-7 L 19,7 L 0,7 L 0,15
 L 50,15 z
M 95,-36.075 L 95,-40 L 102.925,-40 L 102.925,-36.075 z
M 72,-36.075 L 72,-40 L 79.925,-40 L 79.925,-36.075 z
M 118,-36.075 L 118,-40 L 125.925,-40 L 125.925,-36.075 z
M 27,-18.0718 L 24.0718,-21 L 23,-25 L 24.0718,-29 L 27,-31.9282 L 31,-33
 L 35,-31.9282 L 37.9282,-29 L 39,-25 L 37.9282,-21 L 35,-18.0718 L 31,-17
 z
M 108.666,4.90829 L 102.4,2.62769 L 97.2919,-1.65848 L 93.9579,-7.43321 L 92.8,-14 L 93.9579,-20.5668
 L 97.2919,-26.3415 L 102.4,-30.6277 L 108.666,-32.9083 L 115.334,-32.9083 L 121.6,-30.6277 L 126.708,-26.3415
 L 130.042,-20.5668 L 131.2,-14 L 130.042,-7.43321 L 126.708,-1.65848 L 121.6,2.62769 L 115.334,4.90829
 z
M 95.2875,-28.7659 L 94.7659,-29.2875 L 94.575,-30 L 94.7659,-30.7125 L 95.2875,-31.2341 L 96,-31.425
 L 96.7125,-31.2341 L 97.2341,-30.7125 L 97.425,-30 L 97.2341,-29.2875 L 96.7125,-28.7659 L 96,-28.575
 z
M 127.287,-28.7659 L 126.766,-29.2875 L 126.575,-30 L 126.766,-30.7125 L 127.287,-31.2341 L 128,-31.425
 L 128.712,-31.2341 L 129.234,-30.7125 L 129.425,-30 L 129.234,-29.2875 L 128.712,-28.7659 L 128,-28.575
 z
M 6.28749,-10.7659 L 5.7659,-11.2875 L 5.575,-12 L 5.7659,-12.7125 L 6.28749,-13.2341 L 7,-13.425
 L 7.71249,-13.2341 L 8.23409,-12.7125 L 8.42499,-12 L 8.23409,-11.2875 L 7.71249,-10.7659 L 7,-10.575
 z
M 40.075,-8 L 40.3329,-8.96249 L 41.0375,-9.66708 L 42,-9.92499 L 42.9625,-9.66708 L 43.6671,-8.96249
 L 43.925,-8 L 43.6671,-7.03749 L 42.9625,-6.3329 L 42,-6.075 L 41.0375,-6.3329 L 40.3329,-7.03749
 z
M 21.0375,-6.3329 L 20.3329,-7.03749 L 20.075,-8 L 20.3329,-8.96249 L 21.0375,-9.66708 L 22,-9.92499
 L 22.9625,-9.66708 L 23.6671,-8.96249 L 23.925,-8 L 23.6671,-7.03749 L 22.9625,-6.3329 L 22,-6.075
 z
M 127.287,3.23409 L 126.766,2.71249 L 126.575,2 L 126.766,1.28749 L 127.287,0.7659 L 128,0.574997
 L 128.712,0.7659 L 129.234,1.28749 L 129.425,2 L 129.234,2.71249 L 128.712,3.23409 L 128,3.42499
 z
M 95.2875,3.23409 L 94.7659,2.71249 L 94.575,2 L 94.7659,1.28749 L 95.2875,0.7659 L 96,0.574997
 L 96.7125,0.7659 L 97.2341,1.28749 L 97.425,2 L 97.2341,2.71249 L 96.7125,3.23409 L 96,3.42499
 z
M 41.0375,9.66708 L 40.3329,8.96249 L 40.075,8 L 40.3329,7.03749 L 41.0375,6.3329 L 42,6.075
 L 42.9625,6.3329 L 43.6671,7.03749 L 43.925,8 L 43.6671,8.96249 L 42.9625,9.66708 L 42,9.92499
 z
M 31.5375,9.66708 L 30.8329,8.96249 L 30.575,8 L 30.8329,7.03749 L 31.5375,6.3329 L 32.5,6.075
 L 33.4625,6.3329 L 34.1671,7.03749 L 34.425,8 L 34.1671,8.96249 L 33.4625,9.66708 L 32.5,9.92499
 z
M 21.0375,9.66708 L 20.3329,8.96249 L 20.075,8 L 20.3329,7.03749 L 21.0375,6.3329 L 22,6.075
 L 22.9625,6.3329 L 23.6671,7.03749 L 23.925,8 L 23.6671,8.96249 L 22.9625,9.66708 L 22,9.92499
 z
M 6.28749,13.2341 L 5.7659,12.7125 L 5.575,12 L 5.7659,11.2875 L 6.28749,10.7659 L 7,10.575
 L 7.71249,10.7659 L 8.23409,11.2875 L 8.42499,12 L 8.23409,12.7125 L 7.71249,13.2341 L 7,13.425
 z
M 31.5375,-6.3329 L 30.8329,-7.03749 L 30.575,-8 L 30.8329,-8.96249 L 31.5375,-9.66708 L 32.5,-9.92499
 L 33.4625,-9.66708 L 34.1671,-8.96249 L 34.425,-8 L 34.1671,-7.03749 L 33.4625,-6.3329 L 32.5,-6.075
 z
" stroke="black" fill="lightgray" stroke-width="0.5"/></svg>
