  0
SECTION
  2
BLOCKS
  0
ENDSEC
  0
SECTION
  2
ENTITIES
  0
LINE
  8
0
 10
50
 20
19
 11
64
 21
19
  0
LINE
  8
0
 10
64
 20
19
 11
64
 21
3.73204
  0
LINE
  8
0
 10
64
 20
3.73204
 11
64.2058
 21
4.49998
  0
LINE
  8
0
 10
64.2058
 20
4.49998
 11
67.5
 21
7.79422
  0
LINE
  8
0
 10
67.5
 20
7.79422
 11
72
 21
9
  0
LINE
  8
0
 10
72
 20
9
 11
76.5
 21
7.79422
  0
LINE
  8
0
 10
76.5
 20
7.79422
 11
79.7942
 21
4.49998
  0
LINE
  8
0
 10
79.7942
 20
4.49998
 11
81
 21
0
  0
LINE
  8
0
 10
81
 20
0
 11
79.7942
 21
-4.5
  0
LINE
  8
0
 10
79.7942
 20
-4.5
 11
76.5
 21
-7.79422
  0
LINE
  8
0
 10
76.5
 20
-7.79422
 11
72
 21
-9
  0
LINE
  8
0
 10
72
 20
-9
 11
67.5
 21
-7.79422
  0
LINE
  8
0
 10
67.5
 20
-7.79422
 11
64.2058
 21
-4.49998
  0
LINE
  8
0
 10
64.2058
 20
-4.49998
 11
64
 21
-3.73204
  0
LINE
  8
0
 10
64
 20
-3.73204
 11
64
 21
-15
  0
LINE
  8
0
 10
64
 20
-15
 11
135
 21
-15
  0
LINE
  8
0
 10
135
 20
-15
 11
135
 21
43
  0
LINE
  8
0
 10
135
 20
43
 11
0
 21
43
  0
LINE
  8
0
 10
0
 20
43
 11
0
 21
7
  0
LINE
  8
0
 10
0
 20
7
 11
19
 21
7
  0
LINE
  8
0
 10
19
 20
7
 11
19
 21
-7
  0
LINE
  8
0
 10
19
 20
-7
 11
0
 21
-7
  0
LINE
  8
0
 10
0
 20
-7
 11
0
 21
-15
  0
LINE
  8
0
 10
0
 20
-15
 11
50
 21
-15
  0
LINE
  8
0
 10
50
 20
-15
 11
50
 21
19
  0
LINE
  8
0
 10
95
 20
36.075
 11
95
 21
40
  0
LINE
  8
0
 10
95
 20
40
 11
102.925
 21
40
  0
LINE
  8
0
 10
102.925
 20
40
 11
102.925
 21
36.075
  0
LINE
  8
0
 10
102.925
 20
36.075
 11
95
 21
36.075
  0
LINE
  8
0
 10
72
 20
36.075
 11
72
 21
40
  0
LINE
  8
0
 10
72
 20
40
 11
79.925
 21
40
  0
LINE
  8
0
 10
79.925
 20
40
 11
79.925
 21
36.075
  0
LINE
  8
0
 10
79.925
 20
36.075
 11
72
 21
36.075
  0
LINE
  8
0
 10
118
 20
36.075
 11
118
 21
40
  0
LINE
  8
0
 10
118
 20
40
 11
125.925
 21
40
  0
LINE
  8
0
 10
125.925
 20
40
 11
125.925
 21
36.075
  0
LINE
  8
0
 10
125.925
 20
36.075
 11
118
 21
36.075
  0
LINE
  8
0
 10
27
 20
18.0718
 11
24.0718
 21
21
  0
LINE
  8
0
 10
24.0718
 20
21
 11
23
 21
25
  0
LINE
  8
0
 10
23
 20
25
 11
24.0718
 21
29
  0
LINE
  8
0
 10
24.0718
 20
29
 11
27
 21
31.9282
  0
LINE
  8
0
 10
27
 20
31.9282
 11
31
 21
33
  0
LINE
  8
0
 10
31
 20
33
 11
35
 21
31.9282
  0
LINE
  8
0
 10
35
 20
31.9282
 11
37.9282
 21
29
  0
LINE
  8
0
 10
37.9282
 20
29
 11
39
 21
25
  0
LINE
  8
0
 10
39
 20
25
 11
37.9282
 21
21
  0
LINE
  8
0
 10
37.9282
 20
21
 11
35
 21
18.0718
  0
LINE
  8
0
 10
35
 20
18.0718
 11
31
 21
17
  0
LINE
  8
0
 10
31
 20
17
 11
27
 21
18.0718
  0
LINE
  8
0
 10
108.666
 20
-4.90829
 11
102.4
 21
-2.62769
  0
LINE
  8
0
 10
102.4
 20
-2.62769
 11
97.2919
 21
1.65848
  0
LINE
  8
0
 10
97.2919
 20
1.65848
 11
93.9579
 21
7.43321
  0
LINE
  8
0
 10
93.9579
 20
7.43321
 11
92.8
 21
14
  0
LINE
  8
0
 10
92.8
 20
14
 11
93.9579
 21
20.5668
  0
LINE
  8
0
 10
93.9579
 20
20.5668
 11
97.2919
 21
26.3415
  0
LINE
  8
0
 10
97.2919
 20
26.3415
 11
102.4
 21
30.6277
  0
LINE
  8
0
 10
102.4
 20
30.6277
 11
108.666
 21
32.9083
  0
LINE
  8
0
 10
108.666
 20
32.9083
 11
115.334
 21
32.9083
  0
LINE
  8
0
 10
115.334
 20
32.9083
 11
121.6
 21
30.6277
  0
LINE
  8
0
 10
121.6
 20
30.6277
 11
126.708
 21
26.3415
  0
LINE
  8
0
 10
126.708
 20
26.3415
 11
130.042
 21
20.5668
  0
LINE
  8
0
 10
130.042
 20
20.5668
 11
131.2
 21
14
  0
LINE
  8
0
 10
131.2
 20
14
 11
130.042
 21
7.43321
  0
LINE
  8
0
 10
130.042
 20
7.43321
 11
126.708
 21
1.65848
  0
LINE
  8
0
 10
126.708
 20
1.65848
 11
121.6
 21
-2.62769
  0
LINE
  8
0
 10
121.6
 20
-2.62769
 11
115.334
 21
-4.90829
  0
LINE
  8
0
 10
115.334
 20
-4.90829
 11
108.666
 21
-4.90829
  0
LINE
  8
0
 10
95.2875
 20
28.7659
 11
94.7659
 21
29.2875
  0
LINE
  8
0
 10
94.7659
 20
29.2875
 11
94.575
 21
30
  0
LINE
  8
0
 10
94.575
 20
30
 11
94.7659
 21
30.7125
  0
LINE
  8
0
 10
94.7659
 20
30.7125
 11
95.2875
 21
31.2341
  0
LINE
  8
0
 10
95.2875
 20
31.2341
 11
96
 21
31.425
  0
LINE
  8
0
 10
96
 20
31.425
 11
96.7125
 21
31.2341
  0
LINE
  8
0
 10
96.7125
 20
31.2341
 11
97.2341
 21
30.7125
  0
LINE
  8
0
 10
97.2341
 20
30.7125
 11
97.425
 21
30
  0
LINE
  8
0
 10
97.425
 20
30
 11
97.2341
 21
29.2875
  0
LINE
  8
0
 10
97.2341
 20
29.2875
 11
96.7125
 21
28.7659
  0
LINE
  8
0
 10
96.7125
 20
28.7659
 11
96
 21
28.575
  0
LINE
  8
0
 10
96
 20
28.575
 11
95.2875
 21
28.7659
  0
LINE
  8
0
 10
127.287
 20
28.7659
 11
126.766
 21
29.2875
  0
LINE
  8
0
 10
126.766
 20
29.2875
 11
126.575
 21
30
  0
LINE
  8
0
 10
126.575
 20
30
 11
126.766
 21
30.7125
  0
LINE
  8
0
 10
126.766
 20
30.7125
 11
127.287
 21
31.2341
  0
LINE
  8
0
 10
127.287
 20
31.2341
 11
128
 21
31.425
  0
LINE
  8
0
 10
128
 20
31.425
 11
128.712
 21
31.2341
  0
LINE
  8
0
 10
128.712
 20
31.2341
 11
129.234
 21
30.7125
  0
LINE
  8
0
 10
129.234
 20
30.7125
 11
129.425
 21
30
  0
LINE
  8
0
 10
129.425
 20
30
 11
129.234
 21
29.2875
  0
LINE
  8
0
 10
129.234
 20
29.2875
 11
128.712
 21
28.7659
  0
LINE
  8
0
 10
128.712
 20
28.7659
 11
128
 21
28.575
  0
LINE
  8
0
 10
128
 20
28.575
 11
127.287
 21
28.7659
  0
LINE
  8
0
 10
6.28749
 20
10.7659
 11
5.7659
 21
11.2875
  0
LINE
  8
0
 10
5.7659
 20
11.2875
 11
5.575
 21
12
  0
LINE
  8
0
 10
5.575
 20
12
 11
5.7659
 21
12.7125
  0
LINE
  8
0
 10
5.7659
 20
12.7125
 11
6.28749
 21
13.2341
  0
LINE
  8
0
 10
6.28749
 20
13.2341
 11
7
 21
13.425
  0
LINE
  8
0
 10
7
 20
13.425
 11
7.71249
 21
13.2341
  0
LINE
  8
0
 10
7.71249
 20
13.2341
 11
8.23409
 21
12.7125
  0
LINE
  8
0
 10
8.23409
 20
12.7125
 11
8.42499
 21
12
  0
LINE
  8
0
 10
8.42499
 20
12
 11
8.23409
 21
11.2875
  0
LINE
  8
0
 10
8.23409
 20
11.2875
 11
7.71249
 21
10.7659
  0
LINE
  8
0
 10
7.71249
 20
10.7659
 11
7
 21
10.575
  0
LINE
  8
0
 10
7
 20
10.575
 11
6.28749
 21
10.7659
  0
LINE
  8
0
 10
40.075
 20
8
 11
40.3329
 21
8.96249
  0
LINE
  8
0
 10
40.3329
 20
8.96249
 11
41.0375
 21
9.66708
  0
LINE
  8
0
 10
41.0375
 20
9.66708
 11
42
 21
9.92499
  0
LINE
  8
0
 10
42
 20
9.92499
 11
42.9625
 21
9.66708
  0
LINE
  8
0
 10
42.9625
 20
9.66708
 11
43.6671
 21
8.96249
  0
LINE
  8
0
 10
43.6671
 20
8.96249
 11
43.925
 21
8
  0
LINE
  8
0
 10
43.925
 20
8
 11
43.6671
 21
7.03749
  0
LINE
  8
0
 10
43.6671
 20
7.03749
 11
42.9625
 21
6.3329
  0
LINE
  8
0
 10
42.9625
 20
6.3329
 11
42
 21
6.075
  0
LINE
  8
0
 10
42
 20
6.075
 11
41.0375
 21
6.3329
  0
LINE
  8
0
 10
41.0375
 20
6.3329
 11
40.3329
 21
7.03749
  0
LINE
  8
0
 10
40.3329
 20
7.03749
 11
40.075
 21
8
  0
LINE
  8
0
 10
21.0375
 20
6.3329
 11
20.3329
 21
7.03749
  0
LINE
  8
0
 10
20.3329
 20
7.03749
 11
20.075
 21
8
  0
LINE
  8
0
 10
20.075
 20
8
 11
20.3329
 21
8.96249
  0
LINE
  8
0
 10
20.3329
 20
8.96249
 11
21.0375
 21
9.66708
  0
LINE
  8
0
 10
21.0375
 20
9.66708
 11
22
 21
9.92499
  0
LINE
  8
0
 10
22
 20
9.92499
 11
22.9625
 21
9.66708
  0
LINE
  8
0
 10
22.9625
 20
9.66708
 11
23.6671
 21
8.96249
  0
LINE
  8
0
 10
23.6671
 20
8.96249
 11
23.925
 21
8
  0
LINE
  8
0
 10
23.925
 20
8
 11
23.6671
 21
7.03749
  0
LINE
  8
0
 10
23.6671
 20
7.03749
 11
22.9625
 21
6.3329
  0
LINE
  8
0
 10
22.9625
 20
6.3329
 11
22
 21
6.075
  0
LINE
  8
0
 10
22
 20
6.075
 11
21.0375
 21
6.3329
  0
LINE
  8
0
 10
127.287
 20
-3.23409
 11
126.766
 21
-2.71249
  0
LINE
  8
0
 10
126.766
 20
-2.71249
 11
126.575
 21
-2
  0
LINE
  8
0
 10
126.575
 20
-2
 11
126.766
 21
-1.28749
  0
LINE
  8
0
 10
126.766
 20
-1.28749
 11
127.287
 21
-0.7659
  0
LINE
  8
0
 10
127.287
 20
-0.7659
 11
128
 21
-0.574997
  0
LINE
  8
0
 10
128
 20
-0.574997
 11
128.712
 21
-0.7659
  0
LINE
  8
0
 10
128.712
 20
-0.7659
 11
129.234
 21
-1.28749
  0
LINE
  8
0
 10
129.234
 20
-1.28749
 11
129.425
 21
-2
  0
LINE
  8
0
 10
129.425
 20
-2
 11
129.234
 21
-2.71249
  0
LINE
  8
0
 10
129.234
 20
-2.71249
 11
128.712
 21
-3.23409
  0
LINE
  8
0
 10
128.712
 20
-3.23409
 11
128
 21
-3.42499
  0
LINE
  8
0
 10
128
 20
-3.42499
 11
127.287
 21
-3.23409
  0
LINE
  8
0
 10
95.2875
 20
-3.23409
 11
94.7659
 21
-2.71249
  0
LINE
  8
0
 10
94.7659
 20
-2.71249
 11
94.575
 21
-2
  0
LINE
  8
0
 10
94.575
 20
-2
 11
94.7659
 21
-1.28749
  0
LINE
  8
0
 10
94.7659
 20
-1.28749
 11
95.2875
 21
-0.7659
  0
LINE
  8
0
 10
95.2875
 20
-0.7659
 11
96
 21
-0.574997
  0
LINE
  8
0
 10
96
 20
-0.574997
 11
96.7125
 21
-0.7659
  0
LINE
  8
0
 10
96.7125
 20
-0.7659
 11
97.2341
 21
-1.28749
  0
LINE
  8
0
 10
97.2341
 20
-1.28749
 11
97.425
 21
-2
  0
LINE
  8
0
 10
97.425
 20
-2
 11
97.2341
 21
-2.71249
  0
LINE
  8
0
 10
97.2341
 20
-2.71249
 11
96.7125
 21
-3.23409
  0
LINE
  8
0
 10
96.7125
 20
-3.23409
 11
96
 21
-3.42499
  0
LINE
  8
0
 10
96
 20
-3.42499
 11
95.2875
 21
-3.23409
  0
LINE
  8
0
 10
41.0375
 20
-9.66708
 11
40.3329
 21
-8.96249
  0
LINE
  8
0
 10
40.3329
 20
-8.96249
 11
40.075
 21
-8
  0
LINE
  8
0
 10
40.075
 20
-8
 11
40.3329
 21
-7.03749
  0
LINE
  8
0
 10
40.3329
 20
-7.03749
 11
41.0375
 21
-6.3329
  0
LINE
  8
0
 10
41.0375
 20
-6.3329
 11
42
 21
-6.075
  0
LINE
  8
0
 10
42
 20
-6.075
 11
42.9625
 21
-6.3329
  0
LINE
  8
0
 10
42.9625
 20
-6.3329
 11
43.6671
 21
-7.03749
  0
LINE
  8
0
 10
43.6671
 20
-7.03749
 11
43.925
 21
-8
  0
LINE
  8
0
 10
43.925
 20
-8
 11
43.6671
 21
-8.96249
  0
LINE
  8
0
 10
43.6671
 20
-8.96249
 11
42.9625
 21
-9.66708
  0
LINE
  8
0
 10
42.9625
 20
-9.66708
 11
42
 21
-9.92499
  0
LINE
  8
0
 10
42
 20
-9.92499
 11
41.0375
 21
-9.66708
  0
LINE
  8
0
 10
31.5375
 20
-9.66708
 11
30.8329
 21
-8.96249
  0
LINE
  8
0
 10
30.8329
 20
-8.96249
 11
30.575
 21
-8
  0
LINE
  8
0
 10
30.575
 20
-8
 11
30.8329
 21
-7.03749
  0
LINE
  8
0
 10
30.8329
 20
-7.03749
 11
31.5375
 21
-6.3329
  0
LINE
  8
0
 10
31.5375
 20
-6.3329
 11
32.5
 21
-6.075
  0
LINE
  8
0
 10
32.5
 20
-6.075
 11
33.4625
 21
-6.3329
  0
LINE
  8
0
 10
33.4625
 20
-6.3329
 11
34.1671
 21
-7.03749
  0
LINE
  8
0
 10
34.1671
 20
-7.03749
 11
34.425
 21
-8
  0
LINE
  8
0
 10
34.425
 20
-8
 11
34.1671
 21
-8.96249
  0
LINE
  8
0
 10
34.1671
 20
-8.96249
 11
33.4625
 21
-9.66708
  0
LINE
  8
0
 10
33.4625
 20
-9.66708
 11
32.5
 21
-9.92499
  0
LINE
  8
0
 10
32.5
 20
-9.92499
 11
31.5375
 21
-9.66708
  0
LINE
  8
0
 10
21.0375
 20
-9.66708
 11
20.3329
 21
-8.96249
  0
LINE
  8
0
 10
20.3329
 20
-8.96249
 11
20.075
 21
-8
  0
LINE
  8
0
 10
20.075
 20
-8
 11
20.3329
 21
-7.03749
  0
LINE
  8
0
 10
20.3329
 20
-7.03749
 11
21.0375
 21
-6.3329
  0
LINE
  8
0
 10
21.0375
 20
-6.3329
 11
22
 21
-6.075
  0
LINE
  8
0
 10
22
 20
-6.075
 11
22.9625
 21
-6.3329
  0
LINE
  8
0
 10
22.9625
 20
-6.3329
 11
23.6671
 21
-7.03749
  0
LINE
  8
0
 10
23.6671
 20
-7.03749
 11
23.925
 21
-8
  0
LINE
  8
0
 10
23.925
 20
-8
 11
23.6671
 21
-8.96249
  0
LINE
  8
0
 10
23.6671
 20
-8.96249
 11
22.9625
 21
-9.66708
  0
LINE
  8
0
 10
22.9625
 20
-9.66708
 11
22
 21
-9.92499
  0
LINE
  8
0
 10
22
 20
-9.92499
 11
21.0375
 21
-9.66708
  0
LINE
  8
0
 10
6.28749
 20
-13.2341
 11
5.7659
 21
-12.7125
  0
LINE
  8
0
 10
5.7659
 20
-12.7125
 11
5.575
 21
-12
  0
LINE
  8
0
 10
5.575
 20
-12
 11
5.7659
 21
-11.2875
  0
LINE
  8
0
 10
5.7659
 20
-11.2875
 11
6.28749
 21
-10.7659
  0
LINE
  8
0
 10
6.28749
 20
-10.7659
 11
7
 21
-10.575
  0
LINE
  8
0
 10
7
 20
-10.575
 11
7.71249
 21
-10.7659
  0
LINE
  8
0
 10
7.71249
 20
-10.7659
 11
8.23409
 21
-11.2875
  0
LINE
  8
0
 10
8.23409
 20
-11.2875
 11
8.42499
 21
-12
  0
LINE
  8
0
 10
8.42499
 20
-12
 11
8.23409
 21
-12.7125
  0
LINE
  8
0
 10
8.23409
 20
-12.7125
 11
7.71249
 21
-13.2341
  0
LINE
  8
0
 10
7.71249
 20
-13.2341
 11
7
 21
-13.425
  0
LINE
  8
0
 10
7
 20
-13.425
 11
6.28749
 21
-13.2341
  0
LINE
  8
0
 10
31.5375
 20
6.3329
 11
30.8329
 21
7.03749
  0
LINE
  8
0
 10
30.8329
 20
7.03749
 11
30.575
 21
8
  0
LINE
  8
0
 10
30.575
 20
8
 11
30.8329
 21
8.96249
  0
LINE
  8
0
 10
30.8329
 20
8.96249
 11
31.5375
 21
9.66708
  0
LINE
  8
0
 10
31.5375
 20
9.66708
 11
32.5
 21
9.92499
  0
LINE
  8
0
 10
32.5
 20
9.92499
 11
33.4625
 21
9.66708
  0
LINE
  8
0
 10
33.4625
 20
9.66708
 11
34.1671
 21
8.96249
  0
LINE
  8
0
 10
34.1671
 20
8.96249
 11
34.425
 21
8
  0
LINE
  8
0
 10
34.425
 20
8
 11
34.1671
 21
7.03749
  0
LINE
  8
0
 10
34.1671
 20
7.03749
 11
33.4625
 21
6.3329
  0
LINE
  8
0
 10
33.4625
 20
6.3329
 11
32.5
 21
6.075
  0
LINE
  8
0
 10
32.5
 20
6.075
 11
31.5375
 21
6.3329
  0
ENDSEC
  0
SECTION
  2
OBJECTS
  0
DICTIONARY
  0
ENDSEC
  0
EOF
