  0
SECTION
  2
BLOCKS
  0
ENDSEC
  0
SECTION
  2
ENTITIES
  0
LINE
  8
0
 10
-65.9
 20
93.875
 11
-69.9
 21
93.875
  0
LINE
  8
0
 10
-69.9
 20
93.875
 11
-69.9
 21
103.65
  0
LINE
  8
0
 10
-69.9
 20
103.65
 11
-65.9
 21
103.65
  0
LINE
  8
0
 10
-65.9
 20
103.65
 11
-65.9
 21
113.625
  0
LINE
  8
0
 10
-65.9
 20
113.625
 11
-69.9
 21
113.625
  0
LINE
  8
0
 10
-69.9
 20
113.625
 11
-69.9
 21
123.4
  0
LINE
  8
0
 10
-69.9
 20
123.4
 11
-65.9
 21
123.4
  0
LINE
  8
0
 10
-65.9
 20
123.4
 11
-65.9
 21
133.375
  0
LINE
  8
0
 10
-65.9
 20
133.375
 11
-69.9
 21
133.375
  0
LINE
  8
0
 10
-69.9
 20
133.375
 11
-69.9
 21
143.15
  0
LINE
  8
0
 10
-69.9
 20
143.15
 11
-65.9
 21
143.15
  0
LINE
  8
0
 10
-65.9
 20
143.15
 11
-65.9
 21
153.125
  0
LINE
  8
0
 10
-65.9
 20
153.125
 11
-69.9
 21
153.125
  0
LINE
  8
0
 10
-69.9
 20
153.125
 11
-69.9
 21
163.1
  0
LINE
  8
0
 10
-69.9
 20
163.1
 11
-65.9
 21
163.1
  0
LINE
  8
0
 10
-65.9
 20
163.1
 11
-65.9
 21
167.1
  0
LINE
  8
0
 10
-65.9
 20
167.1
 11
-78.5
 21
167.1
  0
LINE
  8
0
 10
-78.5
 20
167.1
 11
-78.5
 21
163.1
  0
LINE
  8
0
 10
-78.5
 20
163.1
 11
-90.9
 21
163.1
  0
LINE
  8
0
 10
-90.9
 20
163.1
 11
-90.9
 21
167.1
  0
LINE
  8
0
 10
-90.9
 20
167.1
 11
-103.5
 21
167.1
  0
LINE
  8
0
 10
-103.5
 20
167.1
 11
-103.5
 21
163.1
  0
LINE
  8
0
 10
-103.5
 20
163.1
 11
-120.1
 21
163.1
  0
LINE
  8
0
 10
-120.1
 20
163.1
 11
-120.1
 21
153.125
  0
LINE
  8
0
 10
-120.1
 20
153.125
 11
-116.1
 21
153.125
  0
LINE
  8
0
 10
-116.1
 20
153.125
 11
-116.1
 21
143.35
  0
LINE
  8
0
 10
-116.1
 20
143.35
 11
-120.1
 21
143.35
  0
LINE
  8
0
 10
-120.1
 20
143.35
 11
-120.1
 21
133.375
  0
LINE
  8
0
 10
-120.1
 20
133.375
 11
-116.1
 21
133.375
  0
LINE
  8
0
 10
-116.1
 20
133.375
 11
-116.1
 21
123.6
  0
LINE
  8
0
 10
-116.1
 20
123.6
 11
-120.1
 21
123.6
  0
LINE
  8
0
 10
-120.1
 20
123.6
 11
-120.1
 21
113.625
  0
LINE
  8
0
 10
-120.1
 20
113.625
 11
-116.1
 21
113.625
  0
LINE
  8
0
 10
-116.1
 20
113.625
 11
-116.1
 21
103.85
  0
LINE
  8
0
 10
-116.1
 20
103.85
 11
-120.1
 21
103.85
  0
LINE
  8
0
 10
-120.1
 20
103.85
 11
-120.1
 21
93.875
  0
LINE
  8
0
 10
-120.1
 20
93.875
 11
-116.1
 21
93.875
  0
LINE
  8
0
 10
-116.1
 20
93.875
 11
-116.1
 21
83.9
  0
LINE
  8
0
 10
-116.1
 20
83.9
 11
-65.9
 21
83.9
  0
LINE
  8
0
 10
-65.9
 20
83.9
 11
-65.9
 21
93.875
  0
LINE
  8
0
 10
-120.9
 20
93.875
 11
-124.9
 21
93.875
  0
LINE
  8
0
 10
-124.9
 20
93.875
 11
-124.9
 21
103.65
  0
LINE
  8
0
 10
-124.9
 20
103.65
 11
-120.9
 21
103.65
  0
LINE
  8
0
 10
-120.9
 20
103.65
 11
-120.9
 21
113.625
  0
LINE
  8
0
 10
-120.9
 20
113.625
 11
-124.9
 21
113.625
  0
LINE
  8
0
 10
-124.9
 20
113.625
 11
-124.9
 21
123.4
  0
LINE
  8
0
 10
-124.9
 20
123.4
 11
-120.9
 21
123.4
  0
LINE
  8
0
 10
-120.9
 20
123.4
 11
-120.9
 21
133.375
  0
LINE
  8
0
 10
-120.9
 20
133.375
 11
-124.9
 21
133.375
  0
LINE
  8
0
 10
-124.9
 20
133.375
 11
-124.9
 21
143.15
  0
LINE
  8
0
 10
-124.9
 20
143.15
 11
-120.9
 21
143.15
  0
LINE
  8
0
 10
-120.9
 20
143.15
 11
-120.9
 21
153.125
  0
LINE
  8
0
 10
-120.9
 20
153.125
 11
-124.9
 21
153.125
  0
LINE
  8
0
 10
-124.9
 20
153.125
 11
-124.9
 21
163.1
  0
LINE
  8
0
 10
-124.9
 20
163.1
 11
-120.9
 21
163.1
  0
LINE
  8
0
 10
-120.9
 20
163.1
 11
-120.9
 21
167.1
  0
LINE
  8
0
 10
-120.9
 20
167.1
 11
-133.5
 21
167.1
  0
LINE
  8
0
 10
-133.5
 20
167.1
 11
-133.5
 21
163.1
  0
LINE
  8
0
 10
-133.5
 20
163.1
 11
-145.9
 21
163.1
  0
LINE
  8
0
 10
-145.9
 20
163.1
 11
-145.9
 21
167.1
  0
LINE
  8
0
 10
-145.9
 20
167.1
 11
-158.5
 21
167.1
  0
LINE
  8
0
 10
-158.5
 20
167.1
 11
-158.5
 21
163.1
  0
LINE
  8
0
 10
-158.5
 20
163.1
 11
-175.1
 21
163.1
  0
LINE
  8
0
 10
-175.1
 20
163.1
 11
-175.1
 21
153.125
  0
LINE
  8
0
 10
-175.1
 20
153.125
 11
-171.1
 21
153.125
  0
LINE
  8
0
 10
-171.1
 20
153.125
 11
-171.1
 21
143.35
  0
LINE
  8
0
 10
-171.1
 20
143.35
 11
-175.1
 21
143.35
  0
LINE
  8
0
 10
-175.1
 20
143.35
 11
-175.1
 21
133.375
  0
LINE
  8
0
 10
-175.1
 20
133.375
 11
-171.1
 21
133.375
  0
LINE
  8
0
 10
-171.1
 20
133.375
 11
-171.1
 21
123.6
  0
LINE
  8
0
 10
-171.1
 20
123.6
 11
-175.1
 21
123.6
  0
LINE
  8
0
 10
-175.1
 20
123.6
 11
-175.1
 21
113.625
  0
LINE
  8
0
 10
-175.1
 20
113.625
 11
-171.1
 21
113.625
  0
LINE
  8
0
 10
-171.1
 20
113.625
 11
-171.1
 21
103.85
  0
LINE
  8
0
 10
-171.1
 20
103.85
 11
-175.1
 21
103.85
  0
LINE
  8
0
 10
-175.1
 20
103.85
 11
-175.1
 21
93.875
  0
LINE
  8
0
 10
-175.1
 20
93.875
 11
-171.1
 21
93.875
  0
LINE
  8
0
 10
-171.1
 20
93.875
 11
-171.1
 21
83.9
  0
LINE
  8
0
 10
-171.1
 20
83.9
 11
-120.9
 21
83.9
  0
LINE
  8
0
 10
-120.9
 20
83.9
 11
-120.9
 21
93.875
  0
LINE
  8
0
 10
-48.5
 20
87.9
 11
-36.1
 21
87.9
  0
LINE
  8
0
 10
-36.1
 20
87.9
 11
-36.1
 21
83.9
  0
LINE
  8
0
 10
-36.1
 20
83.9
 11
-23.5
 21
83.9
  0
LINE
  8
0
 10
-23.5
 20
83.9
 11
-23.5
 21
87.9
  0
LINE
  8
0
 10
-23.5
 20
87.9
 11
-10.9
 21
87.9
  0
LINE
  8
0
 10
-10.9
 20
87.9
 11
-10.9
 21
98.5
  0
LINE
  8
0
 10
-10.9
 20
98.5
 11
-14.9
 21
98.5
  0
LINE
  8
0
 10
-14.9
 20
98.5
 11
-14.9
 21
108.9
  0
LINE
  8
0
 10
-14.9
 20
108.9
 11
-10.9
 21
108.9
  0
LINE
  8
0
 10
-10.9
 20
108.9
 11
-10.9
 21
119.5
  0
LINE
  8
0
 10
-10.9
 20
119.5
 11
-14.9
 21
119.5
  0
LINE
  8
0
 10
-14.9
 20
119.5
 11
-14.9
 21
129.9
  0
LINE
  8
0
 10
-14.9
 20
129.9
 11
-10.9
 21
129.9
  0
LINE
  8
0
 10
-10.9
 20
129.9
 11
-10.9
 21
140.5
  0
LINE
  8
0
 10
-10.9
 20
140.5
 11
-14.9
 21
140.5
  0
LINE
  8
0
 10
-14.9
 20
140.5
 11
-14.9
 21
151.1
  0
LINE
  8
0
 10
-14.9
 20
151.1
 11
-27.5
 21
151.1
  0
LINE
  8
0
 10
-27.5
 20
151.1
 11
-27.5
 21
147.1
  0
LINE
  8
0
 10
-27.5
 20
147.1
 11
-39.9
 21
147.1
  0
LINE
  8
0
 10
-39.9
 20
147.1
 11
-39.9
 21
151.1
  0
LINE
  8
0
 10
-39.9
 20
151.1
 11
-52.5
 21
151.1
  0
LINE
  8
0
 10
-52.5
 20
151.1
 11
-52.5
 21
147.1
  0
LINE
  8
0
 10
-52.5
 20
147.1
 11
-65.1
 21
147.1
  0
LINE
  8
0
 10
-65.1
 20
147.1
 11
-65.1
 21
136.5
  0
LINE
  8
0
 10
-65.1
 20
136.5
 11
-61.1
 21
136.5
  0
LINE
  8
0
 10
-61.1
 20
136.5
 11
-61.1
 21
126.1
  0
LINE
  8
0
 10
-61.1
 20
126.1
 11
-65.1
 21
126.1
  0
LINE
  8
0
 10
-65.1
 20
126.1
 11
-65.1
 21
115.5
  0
LINE
  8
0
 10
-65.1
 20
115.5
 11
-61.1
 21
115.5
  0
LINE
  8
0
 10
-61.1
 20
115.5
 11
-61.1
 21
105.1
  0
LINE
  8
0
 10
-61.1
 20
105.1
 11
-65.1
 21
105.1
  0
LINE
  8
0
 10
-65.1
 20
105.1
 11
-65.1
 21
94.5
  0
LINE
  8
0
 10
-65.1
 20
94.5
 11
-61.1
 21
94.5
  0
LINE
  8
0
 10
-61.1
 20
94.5
 11
-61.1
 21
83.9
  0
LINE
  8
0
 10
-61.1
 20
83.9
 11
-48.5
 21
83.9
  0
LINE
  8
0
 10
-48.5
 20
83.9
 11
-48.5
 21
87.9
  0
LINE
  8
0
 10
-39.9
 20
9.875
 11
-43.9
 21
9.875
  0
LINE
  8
0
 10
-43.9
 20
9.875
 11
-43.9
 21
19.65
  0
LINE
  8
0
 10
-43.9
 20
19.65
 11
-39.9
 21
19.65
  0
LINE
  8
0
 10
-39.9
 20
19.65
 11
-39.9
 21
29.625
  0
LINE
  8
0
 10
-39.9
 20
29.625
 11
-43.9
 21
29.625
  0
LINE
  8
0
 10
-43.9
 20
29.625
 11
-43.9
 21
39.4
  0
LINE
  8
0
 10
-43.9
 20
39.4
 11
-39.9
 21
39.4
  0
LINE
  8
0
 10
-39.9
 20
39.4
 11
-39.9
 21
49.375
  0
LINE
  8
0
 10
-39.9
 20
49.375
 11
-43.9
 21
49.375
  0
LINE
  8
0
 10
-43.9
 20
49.375
 11
-43.9
 21
59.15
  0
LINE
  8
0
 10
-43.9
 20
59.15
 11
-39.9
 21
59.15
  0
LINE
  8
0
 10
-39.9
 20
59.15
 11
-39.9
 21
69.125
  0
LINE
  8
0
 10
-39.9
 20
69.125
 11
-43.9
 21
69.125
  0
LINE
  8
0
 10
-43.9
 20
69.125
 11
-43.9
 21
79.1
  0
LINE
  8
0
 10
-43.9
 20
79.1
 11
-39.9
 21
79.1
  0
LINE
  8
0
 10
-39.9
 20
79.1
 11
-39.9
 21
83.1
  0
LINE
  8
0
 10
-39.9
 20
83.1
 11
-50.5
 21
83.1
  0
LINE
  8
0
 10
-50.5
 20
83.1
 11
-50.5
 21
79.1
  0
LINE
  8
0
 10
-50.5
 20
79.1
 11
-60.9
 21
79.1
  0
LINE
  8
0
 10
-60.9
 20
79.1
 11
-60.9
 21
83.1
  0
LINE
  8
0
 10
-60.9
 20
83.1
 11
-71.5
 21
83.1
  0
LINE
  8
0
 10
-71.5
 20
83.1
 11
-71.5
 21
79.1
  0
LINE
  8
0
 10
-71.5
 20
79.1
 11
-81.9
 21
79.1
  0
LINE
  8
0
 10
-81.9
 20
79.1
 11
-81.9
 21
83.1
  0
LINE
  8
0
 10
-81.9
 20
83.1
 11
-92.5
 21
83.1
  0
LINE
  8
0
 10
-92.5
 20
83.1
 11
-92.5
 21
79.1
  0
LINE
  8
0
 10
-92.5
 20
79.1
 11
-107.1
 21
79.1
  0
LINE
  8
0
 10
-107.1
 20
79.1
 11
-107.1
 21
69.125
  0
LINE
  8
0
 10
-107.1
 20
69.125
 11
-103.1
 21
69.125
  0
LINE
  8
0
 10
-103.1
 20
69.125
 11
-103.1
 21
59.35
  0
LINE
  8
0
 10
-103.1
 20
59.35
 11
-107.1
 21
59.35
  0
LINE
  8
0
 10
-107.1
 20
59.35
 11
-107.1
 21
49.375
  0
LINE
  8
0
 10
-107.1
 20
49.375
 11
-103.1
 21
49.375
  0
LINE
  8
0
 10
-103.1
 20
49.375
 11
-103.1
 21
39.6
  0
LINE
  8
0
 10
-103.1
 20
39.6
 11
-107.1
 21
39.6
  0
LINE
  8
0
 10
-107.1
 20
39.6
 11
-107.1
 21
29.625
  0
LINE
  8
0
 10
-107.1
 20
29.625
 11
-103.1
 21
29.625
  0
LINE
  8
0
 10
-103.1
 20
29.625
 11
-103.1
 21
19.85
  0
LINE
  8
0
 10
-103.1
 20
19.85
 11
-107.1
 21
19.85
  0
LINE
  8
0
 10
-107.1
 20
19.85
 11
-107.1
 21
9.875
  0
LINE
  8
0
 10
-107.1
 20
9.875
 11
-103.1
 21
9.875
  0
LINE
  8
0
 10
-103.1
 20
9.875
 11
-103.1
 21
-0.0999908
  0
LINE
  8
0
 10
-103.1
 20
-0.0999908
 11
-39.9
 21
-0.0999908
  0
LINE
  8
0
 10
-39.9
 20
-0.0999908
 11
-39.9
 21
9.875
  0
LINE
  8
0
 10
-107.9
 20
9.875
 11
-111.9
 21
9.875
  0
LINE
  8
0
 10
-111.9
 20
9.875
 11
-111.9
 21
19.65
  0
LINE
  8
0
 10
-111.9
 20
19.65
 11
-107.9
 21
19.65
  0
LINE
  8
0
 10
-107.9
 20
19.65
 11
-107.9
 21
29.625
  0
LINE
  8
0
 10
-107.9
 20
29.625
 11
-111.9
 21
29.625
  0
LINE
  8
0
 10
-111.9
 20
29.625
 11
-111.9
 21
39.4
  0
LINE
  8
0
 10
-111.9
 20
39.4
 11
-107.9
 21
39.4
  0
LINE
  8
0
 10
-107.9
 20
39.4
 11
-107.9
 21
49.375
  0
LINE
  8
0
 10
-107.9
 20
49.375
 11
-111.9
 21
49.375
  0
LINE
  8
0
 10
-111.9
 20
49.375
 11
-111.9
 21
59.15
  0
LINE
  8
0
 10
-111.9
 20
59.15
 11
-107.9
 21
59.15
  0
LINE
  8
0
 10
-107.9
 20
59.15
 11
-107.9
 21
69.125
  0
LINE
  8
0
 10
-107.9
 20
69.125
 11
-111.9
 21
69.125
  0
LINE
  8
0
 10
-111.9
 20
69.125
 11
-111.9
 21
79.1
  0
LINE
  8
0
 10
-111.9
 20
79.1
 11
-107.9
 21
79.1
  0
LINE
  8
0
 10
-107.9
 20
79.1
 11
-107.9
 21
83.1
  0
LINE
  8
0
 10
-107.9
 20
83.1
 11
-118.5
 21
83.1
  0
LINE
  8
0
 10
-118.5
 20
83.1
 11
-118.5
 21
79.1
  0
LINE
  8
0
 10
-118.5
 20
79.1
 11
-128.9
 21
79.1
  0
LINE
  8
0
 10
-128.9
 20
79.1
 11
-128.9
 21
83.1
  0
LINE
  8
0
 10
-128.9
 20
83.1
 11
-139.5
 21
83.1
  0
LINE
  8
0
 10
-139.5
 20
83.1
 11
-139.5
 21
79.1
  0
LINE
  8
0
 10
-139.5
 20
79.1
 11
-149.9
 21
79.1
  0
LINE
  8
0
 10
-149.9
 20
79.1
 11
-149.9
 21
83.1
  0
LINE
  8
0
 10
-149.9
 20
83.1
 11
-160.5
 21
83.1
  0
LINE
  8
0
 10
-160.5
 20
83.1
 11
-160.5
 21
79.1
  0
LINE
  8
0
 10
-160.5
 20
79.1
 11
-175.1
 21
79.1
  0
LINE
  8
0
 10
-175.1
 20
79.1
 11
-175.1
 21
69.125
  0
LINE
  8
0
 10
-175.1
 20
69.125
 11
-171.1
 21
69.125
  0
LINE
  8
0
 10
-171.1
 20
69.125
 11
-171.1
 21
59.35
  0
LINE
  8
0
 10
-171.1
 20
59.35
 11
-175.1
 21
59.35
  0
LINE
  8
0
 10
-175.1
 20
59.35
 11
-175.1
 21
49.375
  0
LINE
  8
0
 10
-175.1
 20
49.375
 11
-171.1
 21
49.375
  0
LINE
  8
0
 10
-171.1
 20
49.375
 11
-171.1
 21
39.6
  0
LINE
  8
0
 10
-171.1
 20
39.6
 11
-175.1
 21
39.6
  0
LINE
  8
0
 10
-175.1
 20
39.6
 11
-175.1
 21
29.625
  0
LINE
  8
0
 10
-175.1
 20
29.625
 11
-171.1
 21
29.625
  0
LINE
  8
0
 10
-171.1
 20
29.625
 11
-171.1
 21
19.85
  0
LINE
  8
0
 10
-171.1
 20
19.85
 11
-175.1
 21
19.85
  0
LINE
  8
0
 10
-175.1
 20
19.85
 11
-175.1
 21
9.875
  0
LINE
  8
0
 10
-175.1
 20
9.875
 11
-171.1
 21
9.875
  0
LINE
  8
0
 10
-171.1
 20
9.875
 11
-171.1
 21
-0.0999908
  0
LINE
  8
0
 10
-171.1
 20
-0.0999908
 11
-107.9
 21
-0.0999908
  0
LINE
  8
0
 10
-107.9
 20
-0.0999908
 11
-107.9
 21
9.875
  0
ENDSEC
  0
SECTION
  2
OBJECTS
  0
DICTIONARY
  0
ENDSEC
  0
EOF
