  0
SECTION
  2
BLOCKS
  0
ENDSEC
  0
SECTION
  2
ENTITIES
  0
LINE
  8
0
 10
55
 20
48.9
 11
64.9
 21
48.9
  0
LINE
  8
0
 10
64.9
 20
48.9
 11
64.9
 21
44.9
  0
LINE
  8
0
 10
64.9
 20
44.9
 11
75
 21
44.9
  0
LINE
  8
0
 10
75
 20
44.9
 11
75
 21
48.9
  0
LINE
  8
0
 10
75
 20
48.9
 11
85.1
 21
48.9
  0
LINE
  8
0
 10
85.1
 20
48.9
 11
85.1
 21
44.9
  0
LINE
  8
0
 10
85.1
 20
44.9
 11
89.1
 21
44.9
  0
LINE
  8
0
 10
89.1
 20
44.9
 11
89.1
 21
54.25
  0
LINE
  8
0
 10
89.1
 20
54.25
 11
85.1
 21
54.25
  0
LINE
  8
0
 10
85.1
 20
54.25
 11
85.1
 21
63.4
  0
LINE
  8
0
 10
85.1
 20
63.4
 11
89.1
 21
63.4
  0
LINE
  8
0
 10
89.1
 20
63.4
 11
89.1
 21
72.75
  0
LINE
  8
0
 10
89.1
 20
72.75
 11
85.1
 21
72.75
  0
LINE
  8
0
 10
85.1
 20
72.75
 11
85.1
 21
81.9
  0
LINE
  8
0
 10
85.1
 20
81.9
 11
89.1
 21
81.9
  0
LINE
  8
0
 10
89.1
 20
81.9
 11
89.1
 21
91.25
  0
LINE
  8
0
 10
89.1
 20
91.25
 11
85.1
 21
91.25
  0
LINE
  8
0
 10
85.1
 20
91.25
 11
85.1
 21
100.4
  0
LINE
  8
0
 10
85.1
 20
100.4
 11
89.1
 21
100.4
  0
LINE
  8
0
 10
89.1
 20
100.4
 11
89.1
 21
109.75
  0
LINE
  8
0
 10
89.1
 20
109.75
 11
85.1
 21
109.75
  0
LINE
  8
0
 10
85.1
 20
109.75
 11
85.1
 21
123.1
  0
LINE
  8
0
 10
85.1
 20
123.1
 11
75
 21
123.1
  0
LINE
  8
0
 10
75
 20
123.1
 11
75
 21
119.1
  0
LINE
  8
0
 10
75
 20
119.1
 11
65.1
 21
119.1
  0
LINE
  8
0
 10
65.1
 20
119.1
 11
65.1
 21
123.1
  0
LINE
  8
0
 10
65.1
 20
123.1
 11
55
 21
123.1
  0
LINE
  8
0
 10
55
 20
123.1
 11
55
 21
119.1
  0
LINE
  8
0
 10
55
 20
119.1
 11
44.9
 21
119.1
  0
LINE
  8
0
 10
44.9
 20
119.1
 11
44.9
 21
44.9
  0
LINE
  8
0
 10
44.9
 20
44.9
 11
55
 21
44.9
  0
LINE
  8
0
 10
55
 20
44.9
 11
55
 21
48.9
  0
LINE
  8
0
 10
14
 20
48.9
 11
23.9
 21
48.9
  0
LINE
  8
0
 10
23.9
 20
48.9
 11
23.9
 21
44.9
  0
LINE
  8
0
 10
23.9
 20
44.9
 11
34
 21
44.9
  0
LINE
  8
0
 10
34
 20
44.9
 11
34
 21
48.9
  0
LINE
  8
0
 10
34
 20
48.9
 11
44.1
 21
48.9
  0
LINE
  8
0
 10
44.1
 20
48.9
 11
44.1
 21
123.1
  0
LINE
  8
0
 10
44.1
 20
123.1
 11
34
 21
123.1
  0
LINE
  8
0
 10
34
 20
123.1
 11
34
 21
119.1
  0
LINE
  8
0
 10
34
 20
119.1
 11
24.1
 21
119.1
  0
LINE
  8
0
 10
24.1
 20
119.1
 11
24.1
 21
123.1
  0
LINE
  8
0
 10
24.1
 20
123.1
 11
14
 21
123.1
  0
LINE
  8
0
 10
14
 20
123.1
 11
14
 21
119.1
  0
LINE
  8
0
 10
14
 20
119.1
 11
3.89999
 21
119.1
  0
LINE
  8
0
 10
3.89999
 20
119.1
 11
3.89999
 21
123.1
  0
LINE
  8
0
 10
3.89999
 20
123.1
 11
-0.0999908
 21
123.1
  0
LINE
  8
0
 10
-0.0999908
 20
123.1
 11
-0.0999908
 21
113.75
  0
LINE
  8
0
 10
-0.0999908
 20
113.75
 11
3.89999
 21
113.75
  0
LINE
  8
0
 10
3.89999
 20
113.75
 11
3.89999
 21
104.6
  0
LINE
  8
0
 10
3.89999
 20
104.6
 11
-0.0999908
 21
104.6
  0
LINE
  8
0
 10
-0.0999908
 20
104.6
 11
-0.0999908
 21
95.25
  0
LINE
  8
0
 10
-0.0999908
 20
95.25
 11
3.89999
 21
95.25
  0
LINE
  8
0
 10
3.89999
 20
95.25
 11
3.89999
 21
86.1
  0
LINE
  8
0
 10
3.89999
 20
86.1
 11
-0.0999908
 21
86.1
  0
LINE
  8
0
 10
-0.0999908
 20
86.1
 11
-0.0999908
 21
76.75
  0
LINE
  8
0
 10
-0.0999908
 20
76.75
 11
3.89999
 21
76.75
  0
LINE
  8
0
 10
3.89999
 20
76.75
 11
3.89999
 21
67.6
  0
LINE
  8
0
 10
3.89999
 20
67.6
 11
-0.0999908
 21
67.6
  0
LINE
  8
0
 10
-0.0999908
 20
67.6
 11
-0.0999908
 21
58.25
  0
LINE
  8
0
 10
-0.0999908
 20
58.25
 11
3.89999
 21
58.25
  0
LINE
  8
0
 10
3.89999
 20
58.25
 11
3.89999
 21
44.9
  0
LINE
  8
0
 10
3.89999
 20
44.9
 11
14
 21
44.9
  0
LINE
  8
0
 10
14
 20
44.9
 11
14
 21
48.9
  0
LINE
  8
0
 10
107.25
 20
48.9
 11
120.4
 21
48.9
  0
LINE
  8
0
 10
120.4
 20
48.9
 11
120.4
 21
44.9
  0
LINE
  8
0
 10
120.4
 20
44.9
 11
133.75
 21
44.9
  0
LINE
  8
0
 10
133.75
 20
44.9
 11
133.75
 21
48.9
  0
LINE
  8
0
 10
133.75
 20
48.9
 11
147.1
 21
48.9
  0
LINE
  8
0
 10
147.1
 20
48.9
 11
147.1
 21
58.25
  0
LINE
  8
0
 10
147.1
 20
58.25
 11
143.1
 21
58.25
  0
LINE
  8
0
 10
143.1
 20
58.25
 11
143.1
 21
67.4
  0
LINE
  8
0
 10
143.1
 20
67.4
 11
147.1
 21
67.4
  0
LINE
  8
0
 10
147.1
 20
67.4
 11
147.1
 21
76.75
  0
LINE
  8
0
 10
147.1
 20
76.75
 11
143.1
 21
76.75
  0
LINE
  8
0
 10
143.1
 20
76.75
 11
143.1
 21
85.9
  0
LINE
  8
0
 10
143.1
 20
85.9
 11
147.1
 21
85.9
  0
LINE
  8
0
 10
147.1
 20
85.9
 11
147.1
 21
95.25
  0
LINE
  8
0
 10
147.1
 20
95.25
 11
143.1
 21
95.25
  0
LINE
  8
0
 10
143.1
 20
95.25
 11
143.1
 21
104.4
  0
LINE
  8
0
 10
143.1
 20
104.4
 11
147.1
 21
104.4
  0
LINE
  8
0
 10
147.1
 20
104.4
 11
147.1
 21
113.75
  0
LINE
  8
0
 10
147.1
 20
113.75
 11
143.1
 21
113.75
  0
LINE
  8
0
 10
143.1
 20
113.75
 11
143.1
 21
123.1
  0
LINE
  8
0
 10
143.1
 20
123.1
 11
129.75
 21
123.1
  0
LINE
  8
0
 10
129.75
 20
123.1
 11
129.75
 21
119.1
  0
LINE
  8
0
 10
129.75
 20
119.1
 11
116.6
 21
119.1
  0
LINE
  8
0
 10
116.6
 20
119.1
 11
116.6
 21
123.1
  0
LINE
  8
0
 10
116.6
 20
123.1
 11
103.25
 21
123.1
  0
LINE
  8
0
 10
103.25
 20
123.1
 11
103.25
 21
119.1
  0
LINE
  8
0
 10
103.25
 20
119.1
 11
89.9
 21
119.1
  0
LINE
  8
0
 10
89.9
 20
119.1
 11
89.9
 21
109.75
  0
LINE
  8
0
 10
89.9
 20
109.75
 11
93.9
 21
109.75
  0
LINE
  8
0
 10
93.9
 20
109.75
 11
93.9
 21
100.6
  0
LINE
  8
0
 10
93.9
 20
100.6
 11
89.9
 21
100.6
  0
LINE
  8
0
 10
89.9
 20
100.6
 11
89.9
 21
91.25
  0
LINE
  8
0
 10
89.9
 20
91.25
 11
93.9
 21
91.25
  0
LINE
  8
0
 10
93.9
 20
91.25
 11
93.9
 21
82.1
  0
LINE
  8
0
 10
93.9
 20
82.1
 11
89.9
 21
82.1
  0
LINE
  8
0
 10
89.9
 20
82.1
 11
89.9
 21
72.75
  0
LINE
  8
0
 10
89.9
 20
72.75
 11
93.9
 21
72.75
  0
LINE
  8
0
 10
93.9
 20
72.75
 11
93.9
 21
63.6
  0
LINE
  8
0
 10
93.9
 20
63.6
 11
89.9
 21
63.6
  0
LINE
  8
0
 10
89.9
 20
63.6
 11
89.9
 21
54.25
  0
LINE
  8
0
 10
89.9
 20
54.25
 11
93.9
 21
54.25
  0
LINE
  8
0
 10
93.9
 20
54.25
 11
93.9
 21
44.9
  0
LINE
  8
0
 10
93.9
 20
44.9
 11
107.25
 21
44.9
  0
LINE
  8
0
 10
107.25
 20
44.9
 11
107.25
 21
48.9
  0
LINE
  8
0
 10
71.25
 20
3.89999
 11
84.4
 21
3.89999
  0
LINE
  8
0
 10
84.4
 20
3.89999
 11
84.4
 21
-0.0999908
  0
LINE
  8
0
 10
84.4
 20
-0.0999908
 11
97.75
 21
-0.0999908
  0
LINE
  8
0
 10
97.75
 20
-0.0999908
 11
97.75
 21
3.89999
  0
LINE
  8
0
 10
97.75
 20
3.89999
 11
115.1
 21
3.89999
  0
LINE
  8
0
 10
115.1
 20
3.89999
 11
115.1
 21
14
  0
LINE
  8
0
 10
115.1
 20
14
 11
111.1
 21
14
  0
LINE
  8
0
 10
111.1
 20
14
 11
111.1
 21
23.9
  0
LINE
  8
0
 10
111.1
 20
23.9
 11
115.1
 21
23.9
  0
LINE
  8
0
 10
115.1
 20
23.9
 11
115.1
 21
34
  0
LINE
  8
0
 10
115.1
 20
34
 11
111.1
 21
34
  0
LINE
  8
0
 10
111.1
 20
34
 11
111.1
 21
44.1
  0
LINE
  8
0
 10
111.1
 20
44.1
 11
57.9
 21
44.1
  0
LINE
  8
0
 10
57.9
 20
44.1
 11
57.9
 21
34
  0
LINE
  8
0
 10
57.9
 20
34
 11
61.9
 21
34
  0
LINE
  8
0
 10
61.9
 20
34
 11
61.9
 21
24.1
  0
LINE
  8
0
 10
61.9
 20
24.1
 11
57.9
 21
24.1
  0
LINE
  8
0
 10
57.9
 20
24.1
 11
57.9
 21
14
  0
LINE
  8
0
 10
57.9
 20
14
 11
61.9
 21
14
  0
LINE
  8
0
 10
61.9
 20
14
 11
61.9
 21
3.89999
  0
LINE
  8
0
 10
61.9
 20
3.89999
 11
57.9
 21
3.89999
  0
LINE
  8
0
 10
57.9
 20
3.89999
 11
57.9
 21
-0.0999908
  0
LINE
  8
0
 10
57.9
 20
-0.0999908
 11
71.25
 21
-0.0999908
  0
LINE
  8
0
 10
71.25
 20
-0.0999908
 11
71.25
 21
3.89999
  0
LINE
  8
0
 10
57.1
 20
10
 11
53.1
 21
10
  0
LINE
  8
0
 10
53.1
 20
10
 11
53.1
 21
19.9
  0
LINE
  8
0
 10
53.1
 20
19.9
 11
57.1
 21
19.9
  0
LINE
  8
0
 10
57.1
 20
19.9
 11
57.1
 21
30
  0
LINE
  8
0
 10
57.1
 20
30
 11
53.1
 21
30
  0
LINE
  8
0
 10
53.1
 20
30
 11
53.1
 21
40.1
  0
LINE
  8
0
 10
53.1
 20
40.1
 11
57.1
 21
40.1
  0
LINE
  8
0
 10
57.1
 20
40.1
 11
57.1
 21
44.1
  0
LINE
  8
0
 10
57.1
 20
44.1
 11
43.75
 21
44.1
  0
LINE
  8
0
 10
43.75
 20
44.1
 11
43.75
 21
40.1
  0
LINE
  8
0
 10
43.75
 20
40.1
 11
30.6
 21
40.1
  0
LINE
  8
0
 10
30.6
 20
40.1
 11
30.6
 21
44.1
  0
LINE
  8
0
 10
30.6
 20
44.1
 11
17.25
 21
44.1
  0
LINE
  8
0
 10
17.25
 20
44.1
 11
17.25
 21
40.1
  0
LINE
  8
0
 10
17.25
 20
40.1
 11
-0.0999908
 21
40.1
  0
LINE
  8
0
 10
-0.0999908
 20
40.1
 11
-0.0999908
 21
30
  0
LINE
  8
0
 10
-0.0999908
 20
30
 11
3.89999
 21
30
  0
LINE
  8
0
 10
3.89999
 20
30
 11
3.89999
 21
20.1
  0
LINE
  8
0
 10
3.89999
 20
20.1
 11
-0.0999908
 21
20.1
  0
LINE
  8
0
 10
-0.0999908
 20
20.1
 11
-0.0999908
 21
10
  0
LINE
  8
0
 10
-0.0999908
 20
10
 11
3.89999
 21
10
  0
LINE
  8
0
 10
3.89999
 20
10
 11
3.89999
 21
-0.0999908
  0
LINE
  8
0
 10
3.89999
 20
-0.0999908
 11
57.1
 21
-0.0999908
  0
LINE
  8
0
 10
57.1
 20
-0.0999908
 11
57.1
 21
10
  0
ENDSEC
  0
SECTION
  2
OBJECTS
  0
DICTIONARY
  0
ENDSEC
  0
EOF
