  0
SECTION
  2
BLOCKS
  0
ENDSEC
  0
SECTION
  2
ENTITIES
  0
LINE
  8
0
 10
-69.9
 20
92.875
 11
-72.9
 21
92.875
  0
LINE
  8
0
 10
-72.9
 20
92.875
 11
-72.9
 21
102.65
  0
LINE
  8
0
 10
-72.9
 20
102.65
 11
-69.9
 21
102.65
  0
LINE
  8
0
 10
-69.9
 20
102.65
 11
-69.9
 21
112.625
  0
LINE
  8
0
 10
-69.9
 20
112.625
 11
-72.9
 21
112.625
  0
LINE
  8
0
 10
-72.9
 20
112.625
 11
-72.9
 21
122.4
  0
LINE
  8
0
 10
-72.9
 20
122.4
 11
-69.9
 21
122.4
  0
LINE
  8
0
 10
-69.9
 20
122.4
 11
-69.9
 21
132.375
  0
LINE
  8
0
 10
-69.9
 20
132.375
 11
-72.9
 21
132.375
  0
LINE
  8
0
 10
-72.9
 20
132.375
 11
-72.9
 21
142.15
  0
LINE
  8
0
 10
-72.9
 20
142.15
 11
-69.9
 21
142.15
  0
LINE
  8
0
 10
-69.9
 20
142.15
 11
-69.9
 21
152.125
  0
LINE
  8
0
 10
-69.9
 20
152.125
 11
-72.9
 21
152.125
  0
LINE
  8
0
 10
-72.9
 20
152.125
 11
-72.9
 21
162.1
  0
LINE
  8
0
 10
-72.9
 20
162.1
 11
-69.9
 21
162.1
  0
LINE
  8
0
 10
-69.9
 20
162.1
 11
-69.9
 21
165.1
  0
LINE
  8
0
 10
-69.9
 20
165.1
 11
-82.25
 21
165.1
  0
LINE
  8
0
 10
-82.25
 20
165.1
 11
-82.25
 21
162.1
  0
LINE
  8
0
 10
-82.25
 20
162.1
 11
-94.4
 21
162.1
  0
LINE
  8
0
 10
-94.4
 20
162.1
 11
-94.4
 21
165.1
  0
LINE
  8
0
 10
-94.4
 20
165.1
 11
-106.75
 21
165.1
  0
LINE
  8
0
 10
-106.75
 20
165.1
 11
-106.75
 21
162.1
  0
LINE
  8
0
 10
-106.75
 20
162.1
 11
-122.1
 21
162.1
  0
LINE
  8
0
 10
-122.1
 20
162.1
 11
-122.1
 21
152.125
  0
LINE
  8
0
 10
-122.1
 20
152.125
 11
-119.1
 21
152.125
  0
LINE
  8
0
 10
-119.1
 20
152.125
 11
-119.1
 21
142.35
  0
LINE
  8
0
 10
-119.1
 20
142.35
 11
-122.1
 21
142.35
  0
LINE
  8
0
 10
-122.1
 20
142.35
 11
-122.1
 21
132.375
  0
LINE
  8
0
 10
-122.1
 20
132.375
 11
-119.1
 21
132.375
  0
LINE
  8
0
 10
-119.1
 20
132.375
 11
-119.1
 21
122.6
  0
LINE
  8
0
 10
-119.1
 20
122.6
 11
-122.1
 21
122.6
  0
LINE
  8
0
 10
-122.1
 20
122.6
 11
-122.1
 21
112.625
  0
LINE
  8
0
 10
-122.1
 20
112.625
 11
-119.1
 21
112.625
  0
LINE
  8
0
 10
-119.1
 20
112.625
 11
-119.1
 21
102.85
  0
LINE
  8
0
 10
-119.1
 20
102.85
 11
-122.1
 21
102.85
  0
LINE
  8
0
 10
-122.1
 20
102.85
 11
-122.1
 21
92.875
  0
LINE
  8
0
 10
-122.1
 20
92.875
 11
-119.1
 21
92.875
  0
LINE
  8
0
 10
-119.1
 20
92.875
 11
-119.1
 21
82.9
  0
LINE
  8
0
 10
-119.1
 20
82.9
 11
-69.9
 21
82.9
  0
LINE
  8
0
 10
-69.9
 20
82.9
 11
-69.9
 21
92.875
  0
LINE
  8
0
 10
-122.9
 20
92.875
 11
-125.9
 21
92.875
  0
LINE
  8
0
 10
-125.9
 20
92.875
 11
-125.9
 21
102.65
  0
LINE
  8
0
 10
-125.9
 20
102.65
 11
-122.9
 21
102.65
  0
LINE
  8
0
 10
-122.9
 20
102.65
 11
-122.9
 21
112.625
  0
LINE
  8
0
 10
-122.9
 20
112.625
 11
-125.9
 21
112.625
  0
LINE
  8
0
 10
-125.9
 20
112.625
 11
-125.9
 21
122.4
  0
LINE
  8
0
 10
-125.9
 20
122.4
 11
-122.9
 21
122.4
  0
LINE
  8
0
 10
-122.9
 20
122.4
 11
-122.9
 21
132.375
  0
LINE
  8
0
 10
-122.9
 20
132.375
 11
-125.9
 21
132.375
  0
LINE
  8
0
 10
-125.9
 20
132.375
 11
-125.9
 21
142.15
  0
LINE
  8
0
 10
-125.9
 20
142.15
 11
-122.9
 21
142.15
  0
LINE
  8
0
 10
-122.9
 20
142.15
 11
-122.9
 21
152.125
  0
LINE
  8
0
 10
-122.9
 20
152.125
 11
-125.9
 21
152.125
  0
LINE
  8
0
 10
-125.9
 20
152.125
 11
-125.9
 21
162.1
  0
LINE
  8
0
 10
-125.9
 20
162.1
 11
-122.9
 21
162.1
  0
LINE
  8
0
 10
-122.9
 20
162.1
 11
-122.9
 21
165.1
  0
LINE
  8
0
 10
-122.9
 20
165.1
 11
-135.25
 21
165.1
  0
LINE
  8
0
 10
-135.25
 20
165.1
 11
-135.25
 21
162.1
  0
LINE
  8
0
 10
-135.25
 20
162.1
 11
-147.4
 21
162.1
  0
LINE
  8
0
 10
-147.4
 20
162.1
 11
-147.4
 21
165.1
  0
LINE
  8
0
 10
-147.4
 20
165.1
 11
-159.75
 21
165.1
  0
LINE
  8
0
 10
-159.75
 20
165.1
 11
-159.75
 21
162.1
  0
LINE
  8
0
 10
-159.75
 20
162.1
 11
-175.1
 21
162.1
  0
LINE
  8
0
 10
-175.1
 20
162.1
 11
-175.1
 21
152.125
  0
LINE
  8
0
 10
-175.1
 20
152.125
 11
-172.1
 21
152.125
  0
LINE
  8
0
 10
-172.1
 20
152.125
 11
-172.1
 21
142.35
  0
LINE
  8
0
 10
-172.1
 20
142.35
 11
-175.1
 21
142.35
  0
LINE
  8
0
 10
-175.1
 20
142.35
 11
-175.1
 21
132.375
  0
LINE
  8
0
 10
-175.1
 20
132.375
 11
-172.1
 21
132.375
  0
LINE
  8
0
 10
-172.1
 20
132.375
 11
-172.1
 21
122.6
  0
LINE
  8
0
 10
-172.1
 20
122.6
 11
-175.1
 21
122.6
  0
LINE
  8
0
 10
-175.1
 20
122.6
 11
-175.1
 21
112.625
  0
LINE
  8
0
 10
-175.1
 20
112.625
 11
-172.1
 21
112.625
  0
LINE
  8
0
 10
-172.1
 20
112.625
 11
-172.1
 21
102.85
  0
LINE
  8
0
 10
-172.1
 20
102.85
 11
-175.1
 21
102.85
  0
LINE
  8
0
 10
-175.1
 20
102.85
 11
-175.1
 21
92.875
  0
LINE
  8
0
 10
-175.1
 20
92.875
 11
-172.1
 21
92.875
  0
LINE
  8
0
 10
-172.1
 20
92.875
 11
-172.1
 21
82.9
  0
LINE
  8
0
 10
-172.1
 20
82.9
 11
-122.9
 21
82.9
  0
LINE
  8
0
 10
-122.9
 20
82.9
 11
-122.9
 21
92.875
  0
LINE
  8
0
 10
-53.75
 20
85.9
 11
-41.6
 21
85.9
  0
LINE
  8
0
 10
-41.6
 20
85.9
 11
-41.6
 21
82.9
  0
LINE
  8
0
 10
-41.6
 20
82.9
 11
-29.25
 21
82.9
  0
LINE
  8
0
 10
-29.25
 20
82.9
 11
-29.25
 21
85.9
  0
LINE
  8
0
 10
-29.25
 20
85.9
 11
-16.9
 21
85.9
  0
LINE
  8
0
 10
-16.9
 20
85.9
 11
-16.9
 21
96.3333
  0
LINE
  8
0
 10
-16.9
 20
96.3333
 11
-19.9
 21
96.3333
  0
LINE
  8
0
 10
-19.9
 20
96.3333
 11
-19.9
 21
106.567
  0
LINE
  8
0
 10
-19.9
 20
106.567
 11
-16.9
 21
106.567
  0
LINE
  8
0
 10
-16.9
 20
106.567
 11
-16.9
 21
117
  0
LINE
  8
0
 10
-16.9
 20
117
 11
-19.9
 21
117
  0
LINE
  8
0
 10
-19.9
 20
117
 11
-19.9
 21
127.233
  0
LINE
  8
0
 10
-19.9
 20
127.233
 11
-16.9
 21
127.233
  0
LINE
  8
0
 10
-16.9
 20
127.233
 11
-16.9
 21
137.667
  0
LINE
  8
0
 10
-16.9
 20
137.667
 11
-19.9
 21
137.667
  0
LINE
  8
0
 10
-19.9
 20
137.667
 11
-19.9
 21
148.1
  0
LINE
  8
0
 10
-19.9
 20
148.1
 11
-32.25
 21
148.1
  0
LINE
  8
0
 10
-32.25
 20
148.1
 11
-32.25
 21
145.1
  0
LINE
  8
0
 10
-32.25
 20
145.1
 11
-44.4
 21
145.1
  0
LINE
  8
0
 10
-44.4
 20
145.1
 11
-44.4
 21
148.1
  0
LINE
  8
0
 10
-44.4
 20
148.1
 11
-56.75
 21
148.1
  0
LINE
  8
0
 10
-56.75
 20
148.1
 11
-56.75
 21
145.1
  0
LINE
  8
0
 10
-56.75
 20
145.1
 11
-69.1
 21
145.1
  0
LINE
  8
0
 10
-69.1
 20
145.1
 11
-69.1
 21
134.667
  0
LINE
  8
0
 10
-69.1
 20
134.667
 11
-66.1
 21
134.667
  0
LINE
  8
0
 10
-66.1
 20
134.667
 11
-66.1
 21
124.433
  0
LINE
  8
0
 10
-66.1
 20
124.433
 11
-69.1
 21
124.433
  0
LINE
  8
0
 10
-69.1
 20
124.433
 11
-69.1
 21
114
  0
LINE
  8
0
 10
-69.1
 20
114
 11
-66.1
 21
114
  0
LINE
  8
0
 10
-66.1
 20
114
 11
-66.1
 21
103.767
  0
LINE
  8
0
 10
-66.1
 20
103.767
 11
-69.1
 21
103.767
  0
LINE
  8
0
 10
-69.1
 20
103.767
 11
-69.1
 21
93.3333
  0
LINE
  8
0
 10
-69.1
 20
93.3333
 11
-66.1
 21
93.3333
  0
LINE
  8
0
 10
-66.1
 20
93.3333
 11
-66.1
 21
82.9
  0
LINE
  8
0
 10
-66.1
 20
82.9
 11
-53.75
 21
82.9
  0
LINE
  8
0
 10
-53.75
 20
82.9
 11
-53.75
 21
85.9
  0
LINE
  8
0
 10
-43.9
 20
9.875
 11
-46.9
 21
9.875
  0
LINE
  8
0
 10
-46.9
 20
9.875
 11
-46.9
 21
19.65
  0
LINE
  8
0
 10
-46.9
 20
19.65
 11
-43.9
 21
19.65
  0
LINE
  8
0
 10
-43.9
 20
19.65
 11
-43.9
 21
29.625
  0
LINE
  8
0
 10
-43.9
 20
29.625
 11
-46.9
 21
29.625
  0
LINE
  8
0
 10
-46.9
 20
29.625
 11
-46.9
 21
39.4
  0
LINE
  8
0
 10
-46.9
 20
39.4
 11
-43.9
 21
39.4
  0
LINE
  8
0
 10
-43.9
 20
39.4
 11
-43.9
 21
49.375
  0
LINE
  8
0
 10
-43.9
 20
49.375
 11
-46.9
 21
49.375
  0
LINE
  8
0
 10
-46.9
 20
49.375
 11
-46.9
 21
59.15
  0
LINE
  8
0
 10
-46.9
 20
59.15
 11
-43.9
 21
59.15
  0
LINE
  8
0
 10
-43.9
 20
59.15
 11
-43.9
 21
69.125
  0
LINE
  8
0
 10
-43.9
 20
69.125
 11
-46.9
 21
69.125
  0
LINE
  8
0
 10
-46.9
 20
69.125
 11
-46.9
 21
79.1
  0
LINE
  8
0
 10
-46.9
 20
79.1
 11
-43.9
 21
79.1
  0
LINE
  8
0
 10
-43.9
 20
79.1
 11
-43.9
 21
82.1
  0
LINE
  8
0
 10
-43.9
 20
82.1
 11
-54.3333
 21
82.1
  0
LINE
  8
0
 10
-54.3333
 20
82.1
 11
-54.3333
 21
79.1
  0
LINE
  8
0
 10
-54.3333
 20
79.1
 11
-64.5667
 21
79.1
  0
LINE
  8
0
 10
-64.5667
 20
79.1
 11
-64.5667
 21
82.1
  0
LINE
  8
0
 10
-64.5667
 20
82.1
 11
-75
 21
82.1
  0
LINE
  8
0
 10
-75
 20
82.1
 11
-75
 21
79.1
  0
LINE
  8
0
 10
-75
 20
79.1
 11
-85.2333
 21
79.1
  0
LINE
  8
0
 10
-85.2333
 20
79.1
 11
-85.2333
 21
82.1
  0
LINE
  8
0
 10
-85.2333
 20
82.1
 11
-95.6667
 21
82.1
  0
LINE
  8
0
 10
-95.6667
 20
82.1
 11
-95.6667
 21
79.1
  0
LINE
  8
0
 10
-95.6667
 20
79.1
 11
-109.1
 21
79.1
  0
LINE
  8
0
 10
-109.1
 20
79.1
 11
-109.1
 21
69.125
  0
LINE
  8
0
 10
-109.1
 20
69.125
 11
-106.1
 21
69.125
  0
LINE
  8
0
 10
-106.1
 20
69.125
 11
-106.1
 21
59.35
  0
LINE
  8
0
 10
-106.1
 20
59.35
 11
-109.1
 21
59.35
  0
LINE
  8
0
 10
-109.1
 20
59.35
 11
-109.1
 21
49.375
  0
LINE
  8
0
 10
-109.1
 20
49.375
 11
-106.1
 21
49.375
  0
LINE
  8
0
 10
-106.1
 20
49.375
 11
-106.1
 21
39.6
  0
LINE
  8
0
 10
-106.1
 20
39.6
 11
-109.1
 21
39.6
  0
LINE
  8
0
 10
-109.1
 20
39.6
 11
-109.1
 21
29.625
  0
LINE
  8
0
 10
-109.1
 20
29.625
 11
-106.1
 21
29.625
  0
LINE
  8
0
 10
-106.1
 20
29.625
 11
-106.1
 21
19.85
  0
LINE
  8
0
 10
-106.1
 20
19.85
 11
-109.1
 21
19.85
  0
LINE
  8
0
 10
-109.1
 20
19.85
 11
-109.1
 21
9.875
  0
LINE
  8
0
 10
-109.1
 20
9.875
 11
-106.1
 21
9.875
  0
LINE
  8
0
 10
-106.1
 20
9.875
 11
-106.1
 21
-0.0999908
  0
LINE
  8
0
 10
-106.1
 20
-0.0999908
 11
-43.9
 21
-0.0999908
  0
LINE
  8
0
 10
-43.9
 20
-0.0999908
 11
-43.9
 21
9.875
  0
LINE
  8
0
 10
-109.9
 20
9.875
 11
-112.9
 21
9.875
  0
LINE
  8
0
 10
-112.9
 20
9.875
 11
-112.9
 21
19.65
  0
LINE
  8
0
 10
-112.9
 20
19.65
 11
-109.9
 21
19.65
  0
LINE
  8
0
 10
-109.9
 20
19.65
 11
-109.9
 21
29.625
  0
LINE
  8
0
 10
-109.9
 20
29.625
 11
-112.9
 21
29.625
  0
LINE
  8
0
 10
-112.9
 20
29.625
 11
-112.9
 21
39.4
  0
LINE
  8
0
 10
-112.9
 20
39.4
 11
-109.9
 21
39.4
  0
LINE
  8
0
 10
-109.9
 20
39.4
 11
-109.9
 21
49.375
  0
LINE
  8
0
 10
-109.9
 20
49.375
 11
-112.9
 21
49.375
  0
LINE
  8
0
 10
-112.9
 20
49.375
 11
-112.9
 21
59.15
  0
LINE
  8
0
 10
-112.9
 20
59.15
 11
-109.9
 21
59.15
  0
LINE
  8
0
 10
-109.9
 20
59.15
 11
-109.9
 21
69.125
  0
LINE
  8
0
 10
-109.9
 20
69.125
 11
-112.9
 21
69.125
  0
LINE
  8
0
 10
-112.9
 20
69.125
 11
-112.9
 21
79.1
  0
LINE
  8
0
 10
-112.9
 20
79.1
 11
-109.9
 21
79.1
  0
LINE
  8
0
 10
-109.9
 20
79.1
 11
-109.9
 21
82.1
  0
LINE
  8
0
 10
-109.9
 20
82.1
 11
-120.333
 21
82.1
  0
LINE
  8
0
 10
-120.333
 20
82.1
 11
-120.333
 21
79.1
  0
LINE
  8
0
 10
-120.333
 20
79.1
 11
-130.567
 21
79.1
  0
LINE
  8
0
 10
-130.567
 20
79.1
 11
-130.567
 21
82.1
  0
LINE
  8
0
 10
-130.567
 20
82.1
 11
-141
 21
82.1
  0
LINE
  8
0
 10
-141
 20
82.1
 11
-141
 21
79.1
  0
LINE
  8
0
 10
-141
 20
79.1
 11
-151.233
 21
79.1
  0
LINE
  8
0
 10
-151.233
 20
79.1
 11
-151.233
 21
82.1
  0
LINE
  8
0
 10
-151.233
 20
82.1
 11
-161.667
 21
82.1
  0
LINE
  8
0
 10
-161.667
 20
82.1
 11
-161.667
 21
79.1
  0
LINE
  8
0
 10
-161.667
 20
79.1
 11
-175.1
 21
79.1
  0
LINE
  8
0
 10
-175.1
 20
79.1
 11
-175.1
 21
69.125
  0
LINE
  8
0
 10
-175.1
 20
69.125
 11
-172.1
 21
69.125
  0
LINE
  8
0
 10
-172.1
 20
69.125
 11
-172.1
 21
59.35
  0
LINE
  8
0
 10
-172.1
 20
59.35
 11
-175.1
 21
59.35
  0
LINE
  8
0
 10
-175.1
 20
59.35
 11
-175.1
 21
49.375
  0
LINE
  8
0
 10
-175.1
 20
49.375
 11
-172.1
 21
49.375
  0
LINE
  8
0
 10
-172.1
 20
49.375
 11
-172.1
 21
39.6
  0
LINE
  8
0
 10
-172.1
 20
39.6
 11
-175.1
 21
39.6
  0
LINE
  8
0
 10
-175.1
 20
39.6
 11
-175.1
 21
29.625
  0
LINE
  8
0
 10
-175.1
 20
29.625
 11
-172.1
 21
29.625
  0
LINE
  8
0
 10
-172.1
 20
29.625
 11
-172.1
 21
19.85
  0
LINE
  8
0
 10
-172.1
 20
19.85
 11
-175.1
 21
19.85
  0
LINE
  8
0
 10
-175.1
 20
19.85
 11
-175.1
 21
9.875
  0
LINE
  8
0
 10
-175.1
 20
9.875
 11
-172.1
 21
9.875
  0
LINE
  8
0
 10
-172.1
 20
9.875
 11
-172.1
 21
-0.0999908
  0
LINE
  8
0
 10
-172.1
 20
-0.0999908
 11
-109.9
 21
-0.0999908
  0
LINE
  8
0
 10
-109.9
 20
-0.0999908
 11
-109.9
 21
9.875
  0
ENDSEC
  0
SECTION
  2
OBJECTS
  0
DICTIONARY
  0
ENDSEC
  0
EOF
