  0
SECTION
  2
BLOCKS
  0
ENDSEC
  0
SECTION
  2
ENTITIES
  0
LINE
  8
0
 10
106.5
 20
47.9
 11
119.9
 21
47.9
  0
LINE
  8
0
 10
119.9
 20
47.9
 11
119.9
 21
44.9
  0
LINE
  8
0
 10
119.9
 20
44.9
 11
133.5
 21
44.9
  0
LINE
  8
0
 10
133.5
 20
44.9
 11
133.5
 21
47.9
  0
LINE
  8
0
 10
133.5
 20
47.9
 11
147.1
 21
47.9
  0
LINE
  8
0
 10
147.1
 20
47.9
 11
147.1
 21
57.375
  0
LINE
  8
0
 10
147.1
 20
57.375
 11
144.1
 21
57.375
  0
LINE
  8
0
 10
144.1
 20
57.375
 11
144.1
 21
66.65
  0
LINE
  8
0
 10
144.1
 20
66.65
 11
147.1
 21
66.65
  0
LINE
  8
0
 10
147.1
 20
66.65
 11
147.1
 21
76.125
  0
LINE
  8
0
 10
147.1
 20
76.125
 11
144.1
 21
76.125
  0
LINE
  8
0
 10
144.1
 20
76.125
 11
144.1
 21
85.4
  0
LINE
  8
0
 10
144.1
 20
85.4
 11
147.1
 21
85.4
  0
LINE
  8
0
 10
147.1
 20
85.4
 11
147.1
 21
94.875
  0
LINE
  8
0
 10
147.1
 20
94.875
 11
144.1
 21
94.875
  0
LINE
  8
0
 10
144.1
 20
94.875
 11
144.1
 21
104.15
  0
LINE
  8
0
 10
144.1
 20
104.15
 11
147.1
 21
104.15
  0
LINE
  8
0
 10
147.1
 20
104.15
 11
147.1
 21
113.625
  0
LINE
  8
0
 10
147.1
 20
113.625
 11
144.1
 21
113.625
  0
LINE
  8
0
 10
144.1
 20
113.625
 11
144.1
 21
123.1
  0
LINE
  8
0
 10
144.1
 20
123.1
 11
130.5
 21
123.1
  0
LINE
  8
0
 10
130.5
 20
123.1
 11
130.5
 21
120.1
  0
LINE
  8
0
 10
130.5
 20
120.1
 11
117.1
 21
120.1
  0
LINE
  8
0
 10
117.1
 20
120.1
 11
117.1
 21
123.1
  0
LINE
  8
0
 10
117.1
 20
123.1
 11
103.5
 21
123.1
  0
LINE
  8
0
 10
103.5
 20
123.1
 11
103.5
 21
120.1
  0
LINE
  8
0
 10
103.5
 20
120.1
 11
89.9
 21
120.1
  0
LINE
  8
0
 10
89.9
 20
120.1
 11
89.9
 21
110.625
  0
LINE
  8
0
 10
89.9
 20
110.625
 11
92.9
 21
110.625
  0
LINE
  8
0
 10
92.9
 20
110.625
 11
92.9
 21
101.35
  0
LINE
  8
0
 10
92.9
 20
101.35
 11
89.9
 21
101.35
  0
LINE
  8
0
 10
89.9
 20
101.35
 11
89.9
 21
91.875
  0
LINE
  8
0
 10
89.9
 20
91.875
 11
92.9
 21
91.875
  0
LINE
  8
0
 10
92.9
 20
91.875
 11
92.9
 21
82.6
  0
LINE
  8
0
 10
92.9
 20
82.6
 11
89.9
 21
82.6
  0
LINE
  8
0
 10
89.9
 20
82.6
 11
89.9
 21
73.125
  0
LINE
  8
0
 10
89.9
 20
73.125
 11
92.9
 21
73.125
  0
LINE
  8
0
 10
92.9
 20
73.125
 11
92.9
 21
63.85
  0
LINE
  8
0
 10
92.9
 20
63.85
 11
89.9
 21
63.85
  0
LINE
  8
0
 10
89.9
 20
63.85
 11
89.9
 21
54.375
  0
LINE
  8
0
 10
89.9
 20
54.375
 11
92.9
 21
54.375
  0
LINE
  8
0
 10
92.9
 20
54.375
 11
92.9
 21
44.9
  0
LINE
  8
0
 10
92.9
 20
44.9
 11
106.5
 21
44.9
  0
LINE
  8
0
 10
106.5
 20
44.9
 11
106.5
 21
47.9
  0
LINE
  8
0
 10
13.25
 20
47.9
 11
23.4
 21
47.9
  0
LINE
  8
0
 10
23.4
 20
47.9
 11
23.4
 21
44.9
  0
LINE
  8
0
 10
23.4
 20
44.9
 11
33.75
 21
44.9
  0
LINE
  8
0
 10
33.75
 20
44.9
 11
33.75
 21
47.9
  0
LINE
  8
0
 10
33.75
 20
47.9
 11
44.1
 21
47.9
  0
LINE
  8
0
 10
44.1
 20
47.9
 11
44.1
 21
123.1
  0
LINE
  8
0
 10
44.1
 20
123.1
 11
33.75
 21
123.1
  0
LINE
  8
0
 10
33.75
 20
123.1
 11
33.75
 21
120.1
  0
LINE
  8
0
 10
33.75
 20
120.1
 11
23.6
 21
120.1
  0
LINE
  8
0
 10
23.6
 20
120.1
 11
23.6
 21
123.1
  0
LINE
  8
0
 10
23.6
 20
123.1
 11
13.25
 21
123.1
  0
LINE
  8
0
 10
13.25
 20
123.1
 11
13.25
 21
120.1
  0
LINE
  8
0
 10
13.25
 20
120.1
 11
2.89999
 21
120.1
  0
LINE
  8
0
 10
2.89999
 20
120.1
 11
2.89999
 21
123.1
  0
LINE
  8
0
 10
2.89999
 20
123.1
 11
-0.0999908
 21
123.1
  0
LINE
  8
0
 10
-0.0999908
 20
123.1
 11
-0.0999908
 21
113.625
  0
LINE
  8
0
 10
-0.0999908
 20
113.625
 11
2.89999
 21
113.625
  0
LINE
  8
0
 10
2.89999
 20
113.625
 11
2.89999
 21
104.35
  0
LINE
  8
0
 10
2.89999
 20
104.35
 11
-0.0999908
 21
104.35
  0
LINE
  8
0
 10
-0.0999908
 20
104.35
 11
-0.0999908
 21
94.875
  0
LINE
  8
0
 10
-0.0999908
 20
94.875
 11
2.89999
 21
94.875
  0
LINE
  8
0
 10
2.89999
 20
94.875
 11
2.89999
 21
85.6
  0
LINE
  8
0
 10
2.89999
 20
85.6
 11
-0.0999908
 21
85.6
  0
LINE
  8
0
 10
-0.0999908
 20
85.6
 11
-0.0999908
 21
76.125
  0
LINE
  8
0
 10
-0.0999908
 20
76.125
 11
2.89999
 21
76.125
  0
LINE
  8
0
 10
2.89999
 20
76.125
 11
2.89999
 21
66.85
  0
LINE
  8
0
 10
2.89999
 20
66.85
 11
-0.0999908
 21
66.85
  0
LINE
  8
0
 10
-0.0999908
 20
66.85
 11
-0.0999908
 21
57.375
  0
LINE
  8
0
 10
-0.0999908
 20
57.375
 11
2.89999
 21
57.375
  0
LINE
  8
0
 10
2.89999
 20
57.375
 11
2.89999
 21
44.9
  0
LINE
  8
0
 10
2.89999
 20
44.9
 11
13.25
 21
44.9
  0
LINE
  8
0
 10
13.25
 20
44.9
 11
13.25
 21
47.9
  0
LINE
  8
0
 10
55.25
 20
47.9
 11
65.4
 21
47.9
  0
LINE
  8
0
 10
65.4
 20
47.9
 11
65.4
 21
44.9
  0
LINE
  8
0
 10
65.4
 20
44.9
 11
75.75
 21
44.9
  0
LINE
  8
0
 10
75.75
 20
44.9
 11
75.75
 21
47.9
  0
LINE
  8
0
 10
75.75
 20
47.9
 11
86.1
 21
47.9
  0
LINE
  8
0
 10
86.1
 20
47.9
 11
86.1
 21
44.9
  0
LINE
  8
0
 10
86.1
 20
44.9
 11
89.1
 21
44.9
  0
LINE
  8
0
 10
89.1
 20
44.9
 11
89.1
 21
54.375
  0
LINE
  8
0
 10
89.1
 20
54.375
 11
86.1
 21
54.375
  0
LINE
  8
0
 10
86.1
 20
54.375
 11
86.1
 21
63.65
  0
LINE
  8
0
 10
86.1
 20
63.65
 11
89.1
 21
63.65
  0
LINE
  8
0
 10
89.1
 20
63.65
 11
89.1
 21
73.125
  0
LINE
  8
0
 10
89.1
 20
73.125
 11
86.1
 21
73.125
  0
LINE
  8
0
 10
86.1
 20
73.125
 11
86.1
 21
82.4
  0
LINE
  8
0
 10
86.1
 20
82.4
 11
89.1
 21
82.4
  0
LINE
  8
0
 10
89.1
 20
82.4
 11
89.1
 21
91.875
  0
LINE
  8
0
 10
89.1
 20
91.875
 11
86.1
 21
91.875
  0
LINE
  8
0
 10
86.1
 20
91.875
 11
86.1
 21
101.15
  0
LINE
  8
0
 10
86.1
 20
101.15
 11
89.1
 21
101.15
  0
LINE
  8
0
 10
89.1
 20
101.15
 11
89.1
 21
110.625
  0
LINE
  8
0
 10
89.1
 20
110.625
 11
86.1
 21
110.625
  0
LINE
  8
0
 10
86.1
 20
110.625
 11
86.1
 21
123.1
  0
LINE
  8
0
 10
86.1
 20
123.1
 11
75.75
 21
123.1
  0
LINE
  8
0
 10
75.75
 20
123.1
 11
75.75
 21
120.1
  0
LINE
  8
0
 10
75.75
 20
120.1
 11
65.6
 21
120.1
  0
LINE
  8
0
 10
65.6
 20
120.1
 11
65.6
 21
123.1
  0
LINE
  8
0
 10
65.6
 20
123.1
 11
55.25
 21
123.1
  0
LINE
  8
0
 10
55.25
 20
123.1
 11
55.25
 21
120.1
  0
LINE
  8
0
 10
55.25
 20
120.1
 11
44.9
 21
120.1
  0
LINE
  8
0
 10
44.9
 20
120.1
 11
44.9
 21
44.9
  0
LINE
  8
0
 10
44.9
 20
44.9
 11
55.25
 21
44.9
  0
LINE
  8
0
 10
55.25
 20
44.9
 11
55.25
 21
47.9
  0
LINE
  8
0
 10
71.5
 20
2.89999
 11
84.9
 21
2.89999
  0
LINE
  8
0
 10
84.9
 20
2.89999
 11
84.9
 21
-0.0999908
  0
LINE
  8
0
 10
84.9
 20
-0.0999908
 11
98.5
 21
-0.0999908
  0
LINE
  8
0
 10
98.5
 20
-0.0999908
 11
98.5
 21
2.89999
  0
LINE
  8
0
 10
98.5
 20
2.89999
 11
115.1
 21
2.89999
  0
LINE
  8
0
 10
115.1
 20
2.89999
 11
115.1
 21
13.25
  0
LINE
  8
0
 10
115.1
 20
13.25
 11
112.1
 21
13.25
  0
LINE
  8
0
 10
112.1
 20
13.25
 11
112.1
 21
23.4
  0
LINE
  8
0
 10
112.1
 20
23.4
 11
115.1
 21
23.4
  0
LINE
  8
0
 10
115.1
 20
23.4
 11
115.1
 21
33.75
  0
LINE
  8
0
 10
115.1
 20
33.75
 11
112.1
 21
33.75
  0
LINE
  8
0
 10
112.1
 20
33.75
 11
112.1
 21
44.1
  0
LINE
  8
0
 10
112.1
 20
44.1
 11
57.9
 21
44.1
  0
LINE
  8
0
 10
57.9
 20
44.1
 11
57.9
 21
33.75
  0
LINE
  8
0
 10
57.9
 20
33.75
 11
60.9
 21
33.75
  0
LINE
  8
0
 10
60.9
 20
33.75
 11
60.9
 21
23.6
  0
LINE
  8
0
 10
60.9
 20
23.6
 11
57.9
 21
23.6
  0
LINE
  8
0
 10
57.9
 20
23.6
 11
57.9
 21
13.25
  0
LINE
  8
0
 10
57.9
 20
13.25
 11
60.9
 21
13.25
  0
LINE
  8
0
 10
60.9
 20
13.25
 11
60.9
 21
2.89999
  0
LINE
  8
0
 10
60.9
 20
2.89999
 11
57.9
 21
2.89999
  0
LINE
  8
0
 10
57.9
 20
2.89999
 11
57.9
 21
-0.0999908
  0
LINE
  8
0
 10
57.9
 20
-0.0999908
 11
71.5
 21
-0.0999908
  0
LINE
  8
0
 10
71.5
 20
-0.0999908
 11
71.5
 21
2.89999
  0
LINE
  8
0
 10
57.1
 20
10.25
 11
54.1
 21
10.25
  0
LINE
  8
0
 10
54.1
 20
10.25
 11
54.1
 21
20.4
  0
LINE
  8
0
 10
54.1
 20
20.4
 11
57.1
 21
20.4
  0
LINE
  8
0
 10
57.1
 20
20.4
 11
57.1
 21
30.75
  0
LINE
  8
0
 10
57.1
 20
30.75
 11
54.1
 21
30.75
  0
LINE
  8
0
 10
54.1
 20
30.75
 11
54.1
 21
41.1
  0
LINE
  8
0
 10
54.1
 20
41.1
 11
57.1
 21
41.1
  0
LINE
  8
0
 10
57.1
 20
41.1
 11
57.1
 21
44.1
  0
LINE
  8
0
 10
57.1
 20
44.1
 11
43.5
 21
44.1
  0
LINE
  8
0
 10
43.5
 20
44.1
 11
43.5
 21
41.1
  0
LINE
  8
0
 10
43.5
 20
41.1
 11
30.1
 21
41.1
  0
LINE
  8
0
 10
30.1
 20
41.1
 11
30.1
 21
44.1
  0
LINE
  8
0
 10
30.1
 20
44.1
 11
16.5
 21
44.1
  0
LINE
  8
0
 10
16.5
 20
44.1
 11
16.5
 21
41.1
  0
LINE
  8
0
 10
16.5
 20
41.1
 11
-0.0999908
 21
41.1
  0
LINE
  8
0
 10
-0.0999908
 20
41.1
 11
-0.0999908
 21
30.75
  0
LINE
  8
0
 10
-0.0999908
 20
30.75
 11
2.89999
 21
30.75
  0
LINE
  8
0
 10
2.89999
 20
30.75
 11
2.89999
 21
20.6
  0
LINE
  8
0
 10
2.89999
 20
20.6
 11
-0.0999908
 21
20.6
  0
LINE
  8
0
 10
-0.0999908
 20
20.6
 11
-0.0999908
 21
10.25
  0
LINE
  8
0
 10
-0.0999908
 20
10.25
 11
2.89999
 21
10.25
  0
LINE
  8
0
 10
2.89999
 20
10.25
 11
2.89999
 21
-0.0999908
  0
LINE
  8
0
 10
2.89999
 20
-0.0999908
 11
57.1
 21
-0.0999908
  0
LINE
  8
0
 10
57.1
 20
-0.0999908
 11
57.1
 21
10.25
  0
ENDSEC
  0
SECTION
  2
OBJECTS
  0
DICTIONARY
  0
ENDSEC
  0
EOF
