  0
SECTION
  2
BLOCKS
  0
ENDSEC
  0
SECTION
  2
ENTITIES
  0
LINE
  8
0
 10
0.447998
 20
6.37799
 11
2.07999
 21
6.37799
  0
LINE
  8
0
 10
2.07999
 20
6.37799
 11
2.0903
 21
6.61662
  0
LINE
  8
0
 10
2.0903
 20
6.61662
 11
2.12125
 21
6.84549
  0
LINE
  8
0
 10
2.12125
 20
6.84549
 11
2.17281
 21
7.06462
  0
LINE
  8
0
 10
2.17281
 20
7.06462
 11
2.245
 21
7.27399
  0
LINE
  8
0
 10
2.245
 20
7.27399
 11
2.33493
 21
7.4655
  0
LINE
  8
0
 10
2.33493
 20
7.4655
 11
2.43874
 21
7.62999
  0
LINE
  8
0
 10
2.43874
 20
7.62999
 11
2.55643
 21
7.76749
  0
LINE
  8
0
 10
2.55643
 20
7.76749
 11
2.68799
 21
7.87799
  0
LINE
  8
0
 10
2.68799
 20
7.87799
 11
2.68799
 21
9.59999
  0
LINE
  8
0
 10
2.68799
 20
9.59999
 11
2.45074
 21
9.54587
  0
LINE
  8
0
 10
2.45074
 20
9.54587
 11
2.22299
 21
9.46649
  0
LINE
  8
0
 10
2.22299
 20
9.46649
 11
2.00475
 21
9.36186
  0
LINE
  8
0
 10
2.00475
 20
9.36186
 11
1.79599
 21
9.23199
  0
LINE
  8
0
 10
1.79599
 20
9.23199
 11
1.5985
 21
9.08081
  0
LINE
  8
0
 10
1.5985
 20
9.08081
 11
1.41399
 21
8.91124
  0
LINE
  8
0
 10
1.41399
 20
8.91124
 11
1.24249
 21
8.72331
  0
LINE
  8
0
 10
1.24249
 20
8.72331
 11
1.084
 21
8.517
  0
LINE
  8
0
 10
1.084
 20
8.517
 11
0.940613
 21
8.29456
  0
LINE
  8
0
 10
0.940613
 20
8.29456
 11
0.814499
 21
8.05724
  0
LINE
  8
0
 10
0.814499
 20
8.05724
 11
0.705612
 21
7.80505
  0
LINE
  8
0
 10
0.705612
 20
7.80505
 11
0.613998
 21
7.53799
  0
LINE
  8
0
 10
0.613998
 20
7.53799
 11
0.541367
 21
7.25999
  0
LINE
  8
0
 10
0.541367
 20
7.25999
 11
0.489487
 21
6.974
  0
LINE
  8
0
 10
0.489487
 20
6.974
 11
0.458374
 21
6.67999
  0
LINE
  8
0
 10
0.458374
 20
6.67999
 11
0.447998
 21
6.37799
  0
LINE
  8
0
 10
3.51999
 20
0
 11
5.12
 21
0
  0
LINE
  8
0
 10
5.12
 20
0
 11
5.12
 21
9.66399
  0
LINE
  8
0
 10
5.12
 20
9.66399
 11
3.51999
 21
9.66399
  0
LINE
  8
0
 10
3.51999
 20
9.66399
 11
3.51999
 21
0
  0
LINE
  8
0
 10
5.952
 20
7.87799
 11
6.08681
 21
7.76749
  0
LINE
  8
0
 10
6.08681
 20
7.76749
 11
6.20924
 21
7.62999
  0
LINE
  8
0
 10
6.20924
 20
7.62999
 11
6.31931
 21
7.4655
  0
LINE
  8
0
 10
6.31931
 20
7.4655
 11
6.41699
 21
7.27399
  0
LINE
  8
0
 10
6.41699
 20
7.27399
 11
6.49706
 21
7.06462
  0
LINE
  8
0
 10
6.49706
 20
7.06462
 11
6.55424
 21
6.84549
  0
LINE
  8
0
 10
6.55424
 20
6.84549
 11
6.58856
 21
6.61662
  0
LINE
  8
0
 10
6.58856
 20
6.61662
 11
6.59999
 21
6.37799
  0
LINE
  8
0
 10
6.59999
 20
6.37799
 11
8.19199
 21
6.37799
  0
LINE
  8
0
 10
8.19199
 20
6.37799
 11
8.18143
 21
6.67955
  0
LINE
  8
0
 10
8.18143
 20
6.67955
 11
8.14975
 21
6.97224
  0
LINE
  8
0
 10
8.14975
 20
6.97224
 11
8.09692
 21
7.25606
  0
LINE
  8
0
 10
8.09692
 20
7.25606
 11
8.02299
 21
7.53099
  0
LINE
  8
0
 10
8.02299
 20
7.53099
 11
7.93011
 21
7.795
  0
LINE
  8
0
 10
7.93011
 20
7.795
 11
7.8205
 21
8.045
  0
LINE
  8
0
 10
7.8205
 20
8.045
 11
7.69412
 21
8.28099
  0
LINE
  8
0
 10
7.69412
 20
8.28099
 11
7.55099
 21
8.50299
  0
LINE
  8
0
 10
7.55099
 20
8.50299
 11
7.39287
 21
8.7093
  0
LINE
  8
0
 10
7.39287
 20
8.7093
 11
7.2215
 21
8.89725
  0
LINE
  8
0
 10
7.2215
 20
8.89725
 11
7.03687
 21
9.0668
  0
LINE
  8
0
 10
7.03687
 20
9.0668
 11
6.83899
 21
9.21799
  0
LINE
  8
0
 10
6.83899
 20
9.21799
 11
6.63055
 21
9.34874
  0
LINE
  8
0
 10
6.63055
 20
9.34874
 11
6.41324
 21
9.45599
  0
LINE
  8
0
 10
6.41324
 20
9.45599
 11
6.18706
 21
9.53975
  0
LINE
  8
0
 10
6.18706
 20
9.53975
 11
5.952
 21
9.59999
  0
LINE
  8
0
 10
5.952
 20
9.59999
 11
5.952
 21
7.87799
  0
LINE
  8
0
 10
8.84351
 20
2.728
 11
8.85657
 21
2.45955
  0
LINE
  8
0
 10
8.85657
 20
2.45955
 11
8.89575
 21
2.19724
  0
LINE
  8
0
 10
8.89575
 20
2.19724
 11
8.96106
 21
1.94106
  0
LINE
  8
0
 10
8.96106
 20
1.94106
 11
9.05251
 21
1.69099
  0
LINE
  8
0
 10
9.05251
 20
1.69099
 11
9.16669
 21
1.45137
  0
LINE
  8
0
 10
9.16669
 20
1.45137
 11
9.29926
 21
1.22649
  0
LINE
  8
0
 10
9.29926
 20
1.22649
 11
9.4502
 21
1.01637
  0
LINE
  8
0
 10
9.4502
 20
1.01637
 11
9.61951
 21
0.820999
  0
LINE
  8
0
 10
9.61951
 20
0.820999
 11
9.80618
 21
0.642548
  0
LINE
  8
0
 10
9.80618
 20
0.642548
 11
10.0092
 21
0.483246
  0
LINE
  8
0
 10
10.0092
 20
0.483246
 11
10.2287
 21
0.343048
  0
LINE
  8
0
 10
10.2287
 20
0.343048
 11
10.4645
 21
0.221985
  0
LINE
  8
0
 10
10.4645
 20
0.221985
 11
10.7127
 21
0.124863
  0
LINE
  8
0
 10
10.7127
 20
0.124863
 11
10.9693
 21
0.0554962
  0
LINE
  8
0
 10
10.9693
 20
0.0554962
 11
11.2342
 21
0.0138702
  0
LINE
  8
0
 10
11.2342
 20
0.0138702
 11
11.5075
 21
0
  0
LINE
  8
0
 10
11.5075
 20
0
 11
12.3415
 21
0
  0
LINE
  8
0
 10
12.3415
 20
0
 11
12.3415
 21
1.66399
  0
LINE
  8
0
 10
12.3415
 20
1.66399
 11
11.5075
 21
1.66399
  0
LINE
  8
0
 10
11.5075
 20
1.66399
 11
11.3073
 21
1.6833
  0
LINE
  8
0
 10
11.3073
 20
1.6833
 11
11.1225
 21
1.74124
  0
LINE
  8
0
 10
11.1225
 20
1.74124
 11
10.9532
 21
1.8378
  0
LINE
  8
0
 10
10.9532
 20
1.8378
 11
10.7995
 21
1.97299
  0
LINE
  8
0
 10
10.7995
 20
1.97299
 11
10.6718
 21
2.13667
  0
LINE
  8
0
 10
10.6718
 20
2.13667
 11
10.5805
 21
2.31775
  0
LINE
  8
0
 10
10.5805
 20
2.31775
 11
10.5258
 21
2.51617
  0
LINE
  8
0
 10
10.5258
 20
2.51617
 11
10.5075
 21
2.73199
  0
LINE
  8
0
 10
10.5075
 20
2.73199
 11
10.5075
 21
4.09599
  0
LINE
  8
0
 10
10.5075
 20
4.09599
 11
13.7435
 21
4.09599
  0
LINE
  8
0
 10
13.7435
 20
4.09599
 11
13.7435
 21
5.75999
  0
LINE
  8
0
 10
13.7435
 20
5.75999
 11
10.5075
 21
5.75999
  0
LINE
  8
0
 10
10.5075
 20
5.75999
 11
10.5075
 21
7.09
  0
LINE
  8
0
 10
10.5075
 20
7.09
 11
10.5258
 21
7.28212
  0
LINE
  8
0
 10
10.5258
 20
7.28212
 11
10.5805
 21
7.46049
  0
LINE
  8
0
 10
10.5805
 20
7.46049
 11
10.6718
 21
7.62512
  0
LINE
  8
0
 10
10.6718
 20
7.62512
 11
10.7995
 21
7.77599
  0
LINE
  8
0
 10
10.7995
 20
7.77599
 11
10.9532
 21
7.90199
  0
LINE
  8
0
 10
10.9532
 20
7.90199
 11
11.1225
 21
7.99199
  0
LINE
  8
0
 10
11.1225
 20
7.99199
 11
11.3073
 21
8.04599
  0
LINE
  8
0
 10
11.3073
 20
8.04599
 11
11.5075
 21
8.064
  0
LINE
  8
0
 10
11.5075
 20
8.064
 11
12.3415
 21
8.064
  0
LINE
  8
0
 10
12.3415
 20
8.064
 11
12.3415
 21
9.728
  0
LINE
  8
0
 10
12.3415
 20
9.728
 11
11.5075
 21
9.728
  0
LINE
  8
0
 10
11.5075
 20
9.728
 11
11.2342
 21
9.71494
  0
LINE
  8
0
 10
11.2342
 20
9.71494
 11
10.9693
 21
9.67574
  0
LINE
  8
0
 10
10.9693
 20
9.67574
 11
10.7127
 21
9.61043
  0
LINE
  8
0
 10
10.7127
 20
9.61043
 11
10.4645
 21
9.519
  0
LINE
  8
0
 10
10.4645
 20
9.519
 11
10.2287
 21
9.40536
  0
LINE
  8
0
 10
10.2287
 20
9.40536
 11
10.0092
 21
9.2735
  0
LINE
  8
0
 10
10.0092
 20
9.2735
 11
9.80618
 21
9.12337
  0
LINE
  8
0
 10
9.80618
 20
9.12337
 11
9.61951
 21
8.95499
  0
LINE
  8
0
 10
9.61951
 20
8.95499
 11
9.4502
 21
8.76968
  0
LINE
  8
0
 10
9.4502
 20
8.76968
 11
9.29926
 21
8.56775
  0
LINE
  8
0
 10
9.29926
 20
8.56775
 11
9.16669
 21
8.34918
  0
LINE
  8
0
 10
9.16669
 20
8.34918
 11
9.05251
 21
8.114
  0
LINE
  8
0
 10
9.05251
 20
8.114
 11
8.96106
 21
7.86612
  0
LINE
  8
0
 10
8.96106
 20
7.86612
 11
8.89575
 21
7.6095
  0
LINE
  8
0
 10
8.89575
 20
7.6095
 11
8.85657
 21
7.34412
  0
LINE
  8
0
 10
8.85657
 20
7.34412
 11
8.84351
 21
7.06999
  0
LINE
  8
0
 10
8.84351
 20
7.06999
 11
8.84351
 21
2.728
  0
LINE
  8
0
 10
13.0985
 20
0
 11
13.9875
 21
0
  0
LINE
  8
0
 10
13.9875
 20
0
 11
14.2608
 21
0.016861
  0
LINE
  8
0
 10
14.2608
 20
0.016861
 11
14.5258
 21
0.0674896
  0
LINE
  8
0
 10
14.5258
 20
0.0674896
 11
14.7823
 21
0.151871
  0
LINE
  8
0
 10
14.7823
 20
0.151871
 11
15.0305
 21
0.269989
  0
LINE
  8
0
 10
15.0305
 20
0.269989
 11
15.2663
 21
0.417114
  0
LINE
  8
0
 10
15.2663
 20
0.417114
 11
15.4857
 21
0.587494
  0
LINE
  8
0
 10
15.4857
 20
0.587494
 11
15.6888
 21
0.781113
  0
LINE
  8
0
 10
15.6888
 20
0.781113
 11
15.8755
 21
0.997986
  0
LINE
  8
0
 10
15.8755
 20
0.997986
 11
16.0448
 21
1.23611
  0
LINE
  8
0
 10
16.0448
 20
1.23611
 11
16.1955
 21
1.49249
  0
LINE
  8
0
 10
16.1955
 20
1.49249
 11
16.3277
 21
1.76712
  0
LINE
  8
0
 10
16.3277
 20
1.76712
 11
16.4415
 21
2.06
  0
LINE
  8
0
 10
16.4415
 20
2.06
 11
16.5334
 21
2.36681
  0
LINE
  8
0
 10
16.5334
 20
2.36681
 11
16.599
 21
2.68324
  0
LINE
  8
0
 10
16.599
 20
2.68324
 11
16.6384
 21
3.00931
  0
LINE
  8
0
 10
16.6384
 20
3.00931
 11
16.6515
 21
3.34499
  0
LINE
  8
0
 10
16.6515
 20
3.34499
 11
14.9875
 21
3.34499
  0
LINE
  8
0
 10
14.9875
 20
3.34499
 11
14.9693
 21
2.99911
  0
LINE
  8
0
 10
14.9693
 20
2.99911
 11
14.9145
 21
2.68349
  0
LINE
  8
0
 10
14.9145
 20
2.68349
 11
14.8233
 21
2.39812
  0
LINE
  8
0
 10
14.8233
 20
2.39812
 11
14.6955
 21
2.14299
  0
LINE
  8
0
 10
14.6955
 20
2.14299
 11
14.5417
 21
1.93343
  0
LINE
  8
0
 10
14.5417
 20
1.93343
 11
14.3725
 21
1.78374
  0
LINE
  8
0
 10
14.3725
 20
1.78374
 11
14.1877
 21
1.69392
  0
LINE
  8
0
 10
14.1877
 20
1.69392
 11
13.9875
 21
1.66399
  0
LINE
  8
0
 10
13.9875
 20
1.66399
 11
13.0985
 21
1.66399
  0
LINE
  8
0
 10
13.0985
 20
1.66399
 11
13.0985
 21
0
  0
LINE
  8
0
 10
13.0985
 20
8.064
 11
13.9875
 21
8.064
  0
LINE
  8
0
 10
13.9875
 20
8.064
 11
14.0898
 21
8.05618
  0
LINE
  8
0
 10
14.0898
 20
8.05618
 11
14.1885
 21
8.03275
  0
LINE
  8
0
 10
14.1885
 20
8.03275
 11
14.2838
 21
7.99368
  0
LINE
  8
0
 10
14.2838
 20
7.99368
 11
14.3755
 21
7.939
  0
LINE
  8
0
 10
14.3755
 20
7.939
 11
14.4634
 21
7.87042
  0
LINE
  8
0
 10
14.4634
 20
7.87042
 11
14.546
 21
7.78975
  0
LINE
  8
0
 10
14.546
 20
7.78975
 11
14.6234
 21
7.69693
  0
LINE
  8
0
 10
14.6234
 20
7.69693
 11
14.6955
 21
7.592
  0
LINE
  8
0
 10
14.6955
 20
7.592
 11
14.7611
 21
7.47662
  0
LINE
  8
0
 10
14.7611
 20
7.47662
 11
14.8188
 21
7.35249
  0
LINE
  8
0
 10
14.8188
 20
7.35249
 11
14.8686
 21
7.21962
  0
LINE
  8
0
 10
14.8686
 20
7.21962
 11
14.9105
 21
7.07799
  0
LINE
  8
0
 10
14.9105
 20
7.07799
 11
14.9442
 21
6.92943
  0
LINE
  8
0
 10
14.9442
 20
6.92943
 11
14.9682
 21
6.77574
  0
LINE
  8
0
 10
14.9682
 20
6.77574
 11
14.9827
 21
6.61693
  0
LINE
  8
0
 10
14.9827
 20
6.61693
 11
14.9875
 21
6.45299
  0
LINE
  8
0
 10
14.9875
 20
6.45299
 11
16.6515
 21
6.45299
  0
LINE
  8
0
 10
16.6515
 20
6.45299
 11
16.6384
 21
6.78818
  0
LINE
  8
0
 10
16.6384
 20
6.78818
 11
16.599
 21
7.11275
  0
LINE
  8
0
 10
16.599
 20
7.11275
 11
16.5334
 21
7.42668
  0
LINE
  8
0
 10
16.5334
 20
7.42668
 11
16.4415
 21
7.73
  0
LINE
  8
0
 10
16.4415
 20
7.73
 11
16.3277
 21
8.01894
  0
LINE
  8
0
 10
16.3277
 20
8.01894
 11
16.1955
 21
8.28874
  0
LINE
  8
0
 10
16.1955
 20
8.28874
 11
16.0448
 21
8.53943
  0
LINE
  8
0
 10
16.0448
 20
8.53943
 11
15.8755
 21
8.771
  0
LINE
  8
0
 10
15.8755
 20
8.771
 11
15.6888
 21
8.98125
  0
LINE
  8
0
 10
15.6888
 20
8.98125
 11
15.4857
 21
9.168
  0
LINE
  8
0
 10
15.4857
 20
9.168
 11
15.2663
 21
9.33124
  0
LINE
  8
0
 10
15.2663
 20
9.33124
 11
15.0305
 21
9.47099
  0
LINE
  8
0
 10
15.0305
 20
9.47099
 11
14.7823
 21
9.58344
  0
LINE
  8
0
 10
14.7823
 20
9.58344
 11
14.5258
 21
9.66374
  0
LINE
  8
0
 10
14.5258
 20
9.66374
 11
14.2608
 21
9.71193
  0
LINE
  8
0
 10
14.2608
 20
9.71193
 11
13.9875
 21
9.728
  0
LINE
  8
0
 10
13.9875
 20
9.728
 11
13.0985
 21
9.728
  0
LINE
  8
0
 10
13.0985
 20
9.728
 11
13.0985
 21
8.064
  0
LINE
  8
0
 10
17.3337
 20
2.64999
 11
17.3469
 21
2.3768
  0
LINE
  8
0
 10
17.3469
 20
2.3768
 11
17.3865
 21
2.11224
  0
LINE
  8
0
 10
17.3865
 20
2.11224
 11
17.4524
 21
1.85631
  0
LINE
  8
0
 10
17.4524
 20
1.85631
 11
17.5447
 21
1.60899
  0
LINE
  8
0
 10
17.5447
 20
1.60899
 11
17.6599
 21
1.37424
  0
LINE
  8
0
 10
17.6599
 20
1.37424
 11
17.7935
 21
1.15599
  0
LINE
  8
0
 10
17.7935
 20
1.15599
 11
17.9454
 21
0.954239
  0
LINE
  8
0
 10
17.9454
 20
0.954239
 11
18.1157
 21
0.768997
  0
LINE
  8
0
 10
18.1157
 20
0.768997
 11
18.3039
 21
0.601562
  0
LINE
  8
0
 10
18.3039
 20
0.601562
 11
18.5082
 21
0.45224
  0
LINE
  8
0
 10
18.5082
 20
0.45224
 11
18.7289
 21
0.32106
  0
LINE
  8
0
 10
18.7289
 20
0.32106
 11
18.9657
 21
0.207993
  0
LINE
  8
0
 10
18.9657
 20
0.207993
 11
19.2152
 21
0.116989
  0
LINE
  8
0
 10
19.2152
 20
0.116989
 11
19.4727
 21
0.0519867
  0
LINE
  8
0
 10
19.4727
 20
0.0519867
 11
19.7382
 21
0.0129852
  0
LINE
  8
0
 10
19.7382
 20
0.0129852
 11
20.0117
 21
0
  0
LINE
  8
0
 10
20.0117
 20
0
 11
20.8457
 21
0
  0
LINE
  8
0
 10
20.8457
 20
0
 11
20.8457
 21
1.66399
  0
LINE
  8
0
 10
20.8457
 20
1.66399
 11
20.0117
 21
1.66399
  0
LINE
  8
0
 10
20.0117
 20
1.66399
 11
19.8111
 21
1.68224
  0
LINE
  8
0
 10
19.8111
 20
1.68224
 11
19.625
 21
1.737
  0
LINE
  8
0
 10
19.625
 20
1.737
 11
19.4536
 21
1.82825
  0
LINE
  8
0
 10
19.4536
 20
1.82825
 11
19.2967
 21
1.95599
  0
LINE
  8
0
 10
19.2967
 20
1.95599
 11
19.1659
 21
2.10887
  0
LINE
  8
0
 10
19.1659
 20
2.10887
 11
19.0725
 21
2.2755
  0
LINE
  8
0
 10
19.0725
 20
2.2755
 11
19.0164
 21
2.45587
  0
LINE
  8
0
 10
19.0164
 20
2.45587
 11
18.9977
 21
2.64999
  0
LINE
  8
0
 10
18.9977
 20
2.64999
 11
18.9977
 21
3.41399
  0
LINE
  8
0
 10
18.9977
 20
3.41399
 11
17.3337
 21
3.41399
  0
LINE
  8
0
 10
17.3337
 20
3.41399
 11
17.3337
 21
2.64999
  0
LINE
  8
0
 10
17.3337
 20
6.73199
 11
17.3469
 21
6.4588
  0
LINE
  8
0
 10
17.3469
 20
6.4588
 11
17.3865
 21
6.19424
  0
LINE
  8
0
 10
17.3865
 20
6.19424
 11
17.4524
 21
5.93831
  0
LINE
  8
0
 10
17.4524
 20
5.93831
 11
17.5447
 21
5.69099
  0
LINE
  8
0
 10
17.5447
 20
5.69099
 11
17.6599
 21
5.45668
  0
LINE
  8
0
 10
17.6599
 20
5.45668
 11
17.7935
 21
5.23874
  0
LINE
  8
0
 10
17.7935
 20
5.23874
 11
17.9454
 21
5.03719
  0
LINE
  8
0
 10
17.9454
 20
5.03719
 11
18.1157
 21
4.85199
  0
LINE
  8
0
 10
18.1157
 20
4.85199
 11
18.3039
 21
4.68456
  0
LINE
  8
0
 10
18.3039
 20
4.68456
 11
18.5082
 21
4.53624
  0
LINE
  8
0
 10
18.5082
 20
4.53624
 11
18.7289
 21
4.40706
  0
LINE
  8
0
 10
18.7289
 20
4.40706
 11
18.9657
 21
4.297
  0
LINE
  8
0
 10
18.9657
 20
4.297
 11
19.2152
 21
4.20906
  0
LINE
  8
0
 10
19.2152
 20
4.20906
 11
19.4727
 21
4.14624
  0
LINE
  8
0
 10
19.4727
 20
4.14624
 11
19.7382
 21
4.10855
  0
LINE
  8
0
 10
19.7382
 20
4.10855
 11
20.0117
 21
4.09599
  0
LINE
  8
0
 10
20.0117
 20
4.09599
 11
20.8457
 21
4.09599
  0
LINE
  8
0
 10
20.8457
 20
4.09599
 11
20.8457
 21
5.75999
  0
LINE
  8
0
 10
20.8457
 20
5.75999
 11
20.0117
 21
5.75999
  0
LINE
  8
0
 10
20.0117
 20
5.75999
 11
19.8111
 21
5.778
  0
LINE
  8
0
 10
19.8111
 20
5.778
 11
19.625
 21
5.83199
  0
LINE
  8
0
 10
19.625
 20
5.83199
 11
19.4536
 21
5.922
  0
LINE
  8
0
 10
19.4536
 20
5.922
 11
19.2967
 21
6.04799
  0
LINE
  8
0
 10
19.2967
 20
6.04799
 11
19.1659
 21
6.19968
  0
LINE
  8
0
 10
19.1659
 20
6.19968
 11
19.0725
 21
6.36674
  0
LINE
  8
0
 10
19.0725
 20
6.36674
 11
19.0164
 21
6.54918
  0
LINE
  8
0
 10
19.0164
 20
6.54918
 11
18.9977
 21
6.74699
  0
LINE
  8
0
 10
18.9977
 20
6.74699
 11
18.9977
 21
7.09
  0
LINE
  8
0
 10
18.9977
 20
7.09
 11
19.0164
 21
7.28212
  0
LINE
  8
0
 10
19.0164
 20
7.28212
 11
19.0725
 21
7.46049
  0
LINE
  8
0
 10
19.0725
 20
7.46049
 11
19.1659
 21
7.62512
  0
LINE
  8
0
 10
19.1659
 20
7.62512
 11
19.2967
 21
7.77599
  0
LINE
  8
0
 10
19.2967
 20
7.77599
 11
19.4536
 21
7.90199
  0
LINE
  8
0
 10
19.4536
 20
7.90199
 11
19.625
 21
7.99199
  0
LINE
  8
0
 10
19.625
 20
7.99199
 11
19.8111
 21
8.04599
  0
LINE
  8
0
 10
19.8111
 20
8.04599
 11
20.0117
 21
8.064
  0
LINE
  8
0
 10
20.0117
 20
8.064
 11
20.8457
 21
8.064
  0
LINE
  8
0
 10
20.8457
 20
8.064
 11
20.8457
 21
9.728
  0
LINE
  8
0
 10
20.8457
 20
9.728
 11
20.0117
 21
9.728
  0
LINE
  8
0
 10
20.0117
 20
9.728
 11
19.7382
 21
9.715
  0
LINE
  8
0
 10
19.7382
 20
9.715
 11
19.4727
 21
9.67599
  0
LINE
  8
0
 10
19.4727
 20
9.67599
 11
19.2152
 21
9.61099
  0
LINE
  8
0
 10
19.2152
 20
9.61099
 11
18.9657
 21
9.51999
  0
LINE
  8
0
 10
18.9657
 20
9.51999
 11
18.7289
 21
9.40686
  0
LINE
  8
0
 10
18.7289
 20
9.40686
 11
18.5082
 21
9.2755
  0
LINE
  8
0
 10
18.5082
 20
9.2755
 11
18.3039
 21
9.12587
  0
LINE
  8
0
 10
18.3039
 20
9.12587
 11
18.1157
 21
8.95799
  0
LINE
  8
0
 10
18.1157
 20
8.95799
 11
17.9454
 21
8.77274
  0
LINE
  8
0
 10
17.9454
 20
8.77274
 11
17.7935
 21
8.571
  0
LINE
  8
0
 10
17.7935
 20
8.571
 11
17.6599
 21
8.35274
  0
LINE
  8
0
 10
17.6599
 20
8.35274
 11
17.5447
 21
8.118
  0
LINE
  8
0
 10
17.5447
 20
8.118
 11
17.4524
 21
7.87112
  0
LINE
  8
0
 10
17.4524
 20
7.87112
 11
17.3865
 21
7.61549
  0
LINE
  8
0
 10
17.3865
 20
7.61549
 11
17.3469
 21
7.35112
  0
LINE
  8
0
 10
17.3469
 20
7.35112
 11
17.3337
 21
7.07799
  0
LINE
  8
0
 10
17.3337
 20
7.07799
 11
17.3337
 21
6.73199
  0
LINE
  8
0
 10
21.5447
 20
8.064
 11
22.3357
 21
8.064
  0
LINE
  8
0
 10
22.3357
 20
8.064
 11
22.5368
 21
8.04575
  0
LINE
  8
0
 10
22.5368
 20
8.04575
 11
22.723
 21
7.991
  0
LINE
  8
0
 10
22.723
 20
7.991
 11
22.8943
 21
7.89975
  0
LINE
  8
0
 10
22.8943
 20
7.89975
 11
23.0507
 21
7.77199
  0
LINE
  8
0
 10
23.0507
 20
7.77199
 11
23.1815
 21
7.61949
  0
LINE
  8
0
 10
23.1815
 20
7.61949
 11
23.275
 21
7.45299
  0
LINE
  8
0
 10
23.275
 20
7.45299
 11
23.3311
 21
7.27249
  0
LINE
  8
0
 10
23.3311
 20
7.27249
 11
23.3497
 21
7.07799
  0
LINE
  8
0
 10
23.3497
 20
7.07799
 11
23.3497
 21
6.314
  0
LINE
  8
0
 10
23.3497
 20
6.314
 11
25.0137
 21
6.314
  0
LINE
  8
0
 10
25.0137
 20
6.314
 11
25.0137
 21
7.07799
  0
LINE
  8
0
 10
25.0137
 20
7.07799
 11
25.0005
 21
7.35156
  0
LINE
  8
0
 10
25.0005
 20
7.35156
 11
24.9607
 21
7.61624
  0
LINE
  8
0
 10
24.9607
 20
7.61624
 11
24.8945
 21
7.87206
  0
LINE
  8
0
 10
24.8945
 20
7.87206
 11
24.8017
 21
8.11899
  0
LINE
  8
0
 10
24.8017
 20
8.11899
 11
24.6869
 21
8.35368
  0
LINE
  8
0
 10
24.6869
 20
8.35368
 11
24.5535
 21
8.57175
  0
LINE
  8
0
 10
24.5535
 20
8.57175
 11
24.4014
 21
8.77318
  0
LINE
  8
0
 10
24.4014
 20
8.77318
 11
24.2307
 21
8.95799
  0
LINE
  8
0
 10
24.2307
 20
8.95799
 11
24.043
 21
9.12587
  0
LINE
  8
0
 10
24.043
 20
9.12587
 11
23.839
 21
9.2755
  0
LINE
  8
0
 10
23.839
 20
9.2755
 11
23.6185
 21
9.40686
  0
LINE
  8
0
 10
23.6185
 20
9.40686
 11
23.3817
 21
9.51999
  0
LINE
  8
0
 10
23.3817
 20
9.51999
 11
23.1326
 21
9.61099
  0
LINE
  8
0
 10
23.1326
 20
9.61099
 11
22.8752
 21
9.67599
  0
LINE
  8
0
 10
22.8752
 20
9.67599
 11
22.6096
 21
9.715
  0
LINE
  8
0
 10
22.6096
 20
9.715
 11
22.3357
 21
9.728
  0
LINE
  8
0
 10
22.3357
 20
9.728
 11
21.5447
 21
9.728
  0
LINE
  8
0
 10
21.5447
 20
9.728
 11
21.5447
 21
8.064
  0
LINE
  8
0
 10
21.5727
 20
0
 11
22.3777
 21
0
  0
LINE
  8
0
 10
22.3777
 20
0
 11
22.6513
 21
0.0139923
  0
LINE
  8
0
 10
22.6513
 20
0.0139923
 11
22.916
 21
0.0559998
  0
LINE
  8
0
 10
22.916
 20
0.0559998
 11
23.1718
 21
0.125992
  0
LINE
  8
0
 10
23.1718
 20
0.125992
 11
23.4187
 21
0.223999
  0
LINE
  8
0
 10
23.4187
 20
0.223999
 11
23.6534
 21
0.345612
  0
LINE
  8
0
 10
23.6534
 20
0.345612
 11
23.8715
 21
0.486496
  0
LINE
  8
0
 10
23.8715
 20
0.486496
 11
24.0729
 21
0.646622
  0
LINE
  8
0
 10
24.0729
 20
0.646622
 11
24.2577
 21
0.825989
  0
LINE
  8
0
 10
24.2577
 20
0.825989
 11
24.4252
 21
1.02287
  0
LINE
  8
0
 10
24.4252
 20
1.02287
 11
24.5735
 21
1.2345
  0
LINE
  8
0
 10
24.5735
 20
1.2345
 11
24.7027
 21
1.46086
  0
LINE
  8
0
 10
24.7027
 20
1.46086
 11
24.8127
 21
1.702
  0
LINE
  8
0
 10
24.8127
 20
1.702
 11
24.9007
 21
1.95406
  0
LINE
  8
0
 10
24.9007
 20
1.95406
 11
24.9635
 21
2.21225
  0
LINE
  8
0
 10
24.9635
 20
2.21225
 11
25.0012
 21
2.47656
  0
LINE
  8
0
 10
25.0012
 20
2.47656
 11
25.0137
 21
2.74699
  0
LINE
  8
0
 10
25.0137
 20
2.74699
 11
25.0137
 21
3.02699
  0
LINE
  8
0
 10
25.0137
 20
3.02699
 11
25.0012
 21
3.29694
  0
LINE
  8
0
 10
25.0012
 20
3.29694
 11
24.9635
 21
3.55974
  0
LINE
  8
0
 10
24.9635
 20
3.55974
 11
24.9007
 21
3.81543
  0
LINE
  8
0
 10
24.9007
 20
3.81543
 11
24.8127
 21
4.064
  0
LINE
  8
0
 10
24.8127
 20
4.064
 11
24.7027
 21
4.30243
  0
LINE
  8
0
 10
24.7027
 20
4.30243
 11
24.5735
 21
4.52675
  0
LINE
  8
0
 10
24.5735
 20
4.52675
 11
24.4252
 21
4.73692
  0
LINE
  8
0
 10
24.4252
 20
4.73692
 11
24.2577
 21
4.933
  0
LINE
  8
0
 10
24.2577
 20
4.933
 11
24.0729
 21
5.11281
  0
LINE
  8
0
 10
24.0729
 20
5.11281
 11
23.8715
 21
5.27324
  0
LINE
  8
0
 10
23.8715
 20
5.27324
 11
23.6534
 21
5.41431
  0
LINE
  8
0
 10
23.6534
 20
5.41431
 11
23.4187
 21
5.536
  0
LINE
  8
0
 10
23.4187
 20
5.536
 11
23.1718
 21
5.63399
  0
LINE
  8
0
 10
23.1718
 20
5.63399
 11
22.916
 21
5.70399
  0
LINE
  8
0
 10
22.916
 20
5.70399
 11
22.6513
 21
5.74599
  0
LINE
  8
0
 10
22.6513
 20
5.74599
 11
22.3777
 21
5.75999
  0
LINE
  8
0
 10
22.3777
 20
5.75999
 11
21.5727
 21
5.75999
  0
LINE
  8
0
 10
21.5727
 20
5.75999
 11
21.5727
 21
4.09599
  0
LINE
  8
0
 10
21.5727
 20
4.09599
 11
22.2947
 21
4.09599
  0
LINE
  8
0
 10
22.2947
 20
4.09599
 11
22.5028
 21
4.07619
  0
LINE
  8
0
 10
22.5028
 20
4.07619
 11
22.696
 21
4.01674
  0
LINE
  8
0
 10
22.696
 20
4.01674
 11
22.8743
 21
3.91768
  0
LINE
  8
0
 10
22.8743
 20
3.91768
 11
23.0377
 21
3.77899
  0
LINE
  8
0
 10
23.0377
 20
3.77899
 11
23.1742
 21
3.61269
  0
LINE
  8
0
 10
23.1742
 20
3.61269
 11
23.2717
 21
3.42975
  0
LINE
  8
0
 10
23.2717
 20
3.42975
 11
23.3302
 21
3.23018
  0
LINE
  8
0
 10
23.3302
 20
3.23018
 11
23.3497
 21
3.01399
  0
LINE
  8
0
 10
23.3497
 20
3.01399
 11
23.3497
 21
2.73199
  0
LINE
  8
0
 10
23.3497
 20
2.73199
 11
23.3302
 21
2.51617
  0
LINE
  8
0
 10
23.3302
 20
2.51617
 11
23.2717
 21
2.31775
  0
LINE
  8
0
 10
23.2717
 20
2.31775
 11
23.1742
 21
2.13667
  0
LINE
  8
0
 10
23.1742
 20
2.13667
 11
23.0377
 21
1.97299
  0
LINE
  8
0
 10
23.0377
 20
1.97299
 11
22.8743
 21
1.8378
  0
LINE
  8
0
 10
22.8743
 20
1.8378
 11
22.696
 21
1.74124
  0
LINE
  8
0
 10
22.696
 20
1.74124
 11
22.5028
 21
1.6833
  0
LINE
  8
0
 10
22.5028
 20
1.6833
 11
22.2947
 21
1.66399
  0
LINE
  8
0
 10
22.2947
 20
1.66399
 11
21.5727
 21
1.66399
  0
LINE
  8
0
 10
21.5727
 20
1.66399
 11
21.5727
 21
0
  0
LINE
  8
0
 10
25.7292
 20
6.37799
 11
27.3612
 21
6.37799
  0
LINE
  8
0
 10
27.3612
 20
6.37799
 11
27.3716
 21
6.61662
  0
LINE
  8
0
 10
27.3716
 20
6.61662
 11
27.4025
 21
6.84549
  0
LINE
  8
0
 10
27.4025
 20
6.84549
 11
27.4541
 21
7.06462
  0
LINE
  8
0
 10
27.4541
 20
7.06462
 11
27.5262
 21
7.27399
  0
LINE
  8
0
 10
27.5262
 20
7.27399
 11
27.6162
 21
7.4655
  0
LINE
  8
0
 10
27.6162
 20
7.4655
 11
27.72
 21
7.62999
  0
LINE
  8
0
 10
27.72
 20
7.62999
 11
27.8377
 21
7.76749
  0
LINE
  8
0
 10
27.8377
 20
7.76749
 11
27.9692
 21
7.87799
  0
LINE
  8
0
 10
27.9692
 20
7.87799
 11
27.9692
 21
9.59999
  0
LINE
  8
0
 10
27.9692
 20
9.59999
 11
27.732
 21
9.54587
  0
LINE
  8
0
 10
27.732
 20
9.54587
 11
27.5042
 21
9.46649
  0
LINE
  8
0
 10
27.5042
 20
9.46649
 11
27.286
 21
9.36186
  0
LINE
  8
0
 10
27.286
 20
9.36186
 11
27.0772
 21
9.23199
  0
LINE
  8
0
 10
27.0772
 20
9.23199
 11
26.8797
 21
9.08081
  0
LINE
  8
0
 10
26.8797
 20
9.08081
 11
26.6952
 21
8.91124
  0
LINE
  8
0
 10
26.6952
 20
8.91124
 11
26.5237
 21
8.72331
  0
LINE
  8
0
 10
26.5237
 20
8.72331
 11
26.3652
 21
8.517
  0
LINE
  8
0
 10
26.3652
 20
8.517
 11
26.2219
 21
8.29456
  0
LINE
  8
0
 10
26.2219
 20
8.29456
 11
26.0957
 21
8.05724
  0
LINE
  8
0
 10
26.0957
 20
8.05724
 11
25.9869
 21
7.80505
  0
LINE
  8
0
 10
25.9869
 20
7.80505
 11
25.8952
 21
7.53799
  0
LINE
  8
0
 10
25.8952
 20
7.53799
 11
25.8226
 21
7.25999
  0
LINE
  8
0
 10
25.8226
 20
7.25999
 11
25.7707
 21
6.974
  0
LINE
  8
0
 10
25.7707
 20
6.974
 11
25.7396
 21
6.67999
  0
LINE
  8
0
 10
25.7396
 20
6.67999
 11
25.7292
 21
6.37799
  0
LINE
  8
0
 10
28.8012
 20
0
 11
30.4012
 21
0
  0
LINE
  8
0
 10
30.4012
 20
0
 11
30.4012
 21
9.66399
  0
LINE
  8
0
 10
30.4012
 20
9.66399
 11
28.8012
 21
9.66399
  0
LINE
  8
0
 10
28.8012
 20
9.66399
 11
28.8012
 21
0
  0
LINE
  8
0
 10
31.2332
 20
7.87799
 11
31.3681
 21
7.76749
  0
LINE
  8
0
 10
31.3681
 20
7.76749
 11
31.4905
 21
7.62999
  0
LINE
  8
0
 10
31.4905
 20
7.62999
 11
31.6006
 21
7.4655
  0
LINE
  8
0
 10
31.6006
 20
7.4655
 11
31.6982
 21
7.27399
  0
LINE
  8
0
 10
31.6982
 20
7.27399
 11
31.7783
 21
7.06462
  0
LINE
  8
0
 10
31.7783
 20
7.06462
 11
31.8355
 21
6.84549
  0
LINE
  8
0
 10
31.8355
 20
6.84549
 11
31.8698
 21
6.61662
  0
LINE
  8
0
 10
31.8698
 20
6.61662
 11
31.8812
 21
6.37799
  0
LINE
  8
0
 10
31.8812
 20
6.37799
 11
33.4732
 21
6.37799
  0
LINE
  8
0
 10
33.4732
 20
6.37799
 11
33.4627
 21
6.67955
  0
LINE
  8
0
 10
33.4627
 20
6.67955
 11
33.431
 21
6.97224
  0
LINE
  8
0
 10
33.431
 20
6.97224
 11
33.3782
 21
7.25606
  0
LINE
  8
0
 10
33.3782
 20
7.25606
 11
33.3042
 21
7.53099
  0
LINE
  8
0
 10
33.3042
 20
7.53099
 11
33.2114
 21
7.795
  0
LINE
  8
0
 10
33.2114
 20
7.795
 11
33.1017
 21
8.045
  0
LINE
  8
0
 10
33.1017
 20
8.045
 11
32.9754
 21
8.28099
  0
LINE
  8
0
 10
32.9754
 20
8.28099
 11
32.8322
 21
8.50299
  0
LINE
  8
0
 10
32.8322
 20
8.50299
 11
32.6741
 21
8.7093
  0
LINE
  8
0
 10
32.6741
 20
8.7093
 11
32.5027
 21
8.89725
  0
LINE
  8
0
 10
32.5027
 20
8.89725
 11
32.3181
 21
9.0668
  0
LINE
  8
0
 10
32.3181
 20
9.0668
 11
32.1202
 21
9.21799
  0
LINE
  8
0
 10
32.1202
 20
9.21799
 11
31.9118
 21
9.34874
  0
LINE
  8
0
 10
31.9118
 20
9.34874
 11
31.6945
 21
9.45599
  0
LINE
  8
0
 10
31.6945
 20
9.45599
 11
31.4683
 21
9.53975
  0
LINE
  8
0
 10
31.4683
 20
9.53975
 11
31.2332
 21
9.59999
  0
LINE
  8
0
 10
31.2332
 20
9.59999
 11
31.2332
 21
7.87799
  0
ENDSEC
  0
SECTION
  2
OBJECTS
  0
DICTIONARY
  0
ENDSEC
  0
EOF
